<?xml version="1.0" standalone="no"?><svg xmlns:xlink="http://www.w3.org/1999/xlink" xmlns="http://www.w3.org/2000/svg" viewBox="0 0 1000 500" preserveAspectRatio="xMaxYMax slice"><g transform="scale(1.3812154696132597)"><rect x="0" y="0" width="724" height="362" fill="#ffffff"/><rect x="0" y="0" width="90.5" height="90.5" fill="#ffffff"/><rect x="0" y="0" width="45.25" height="45.25" fill="#db9083"/><polygon points="45.25,0 45.25,45.25 0,45.25" fill="#95c390"/><rect x="45.25" y="0" width="45.25" height="45.25" fill="#e89946"/><polygon points="45.25,0 90.5,45.25 45.25,45.25" fill="#e9bbb3"/><rect x="0" y="45.25" width="45.25" height="45.25" fill="#f6e5e2"/><polygon points="0,45.25 45.25,45.25 0,90.5" fill="#79b473"/><rect x="45.25" y="45.25" width="45.25" height="45.25" fill="#f5d2ad"/><polygon points="45.25,45.25 90.5,45.25 90.5,90.5" fill="#e7b7ae"/><rect x="90.5" y="0" width="90.5" height="90.5" fill="#ffffff"/><rect x="90.5" y="0" width="45.25" height="45.25" fill="#e3831d"/><polygon points="135.75,0 135.75,45.25 90.5,45.25" fill="#e69137"/><rect x="135.75" y="0" width="45.25" height="45.25" fill="#c4dec1"/><polygon points="135.75,0 181,45.25 135.75,45.25" fill="#a1ca9c"/><rect x="90.5" y="45.25" width="45.25" height="45.25" fill="#fdf8f7"/><polygon points="90.5,45.25 135.75,45.25 135.75,90.5" fill="#f2d7d2"/><rect x="135.75" y="45.25" width="45.25" height="45.25" fill="#a2cb9e"/><polygon points="135.75,45.25 181,45.25 135.75,90.5" fill="#73b06d"/><rect x="181" y="0" width="90.5" height="90.5" fill="#ffffff"/><rect x="181" y="0" width="45.25" height="45.25" fill="#c4dec1"/><polygon points="226.25,0 226.25,45.25 181,45.25" fill="#c3ddc1"/><rect x="226.25" y="0" width="45.25" height="45.25" fill="#a2ca9d"/><polygon points="226.25,0 271.5,45.25 226.25,45.25" fill="#fefffe"/><rect x="181" y="45.25" width="45.25" height="45.25" fill="#d88778"/><polygon points="181,45.25 226.25,45.25 181,90.5" fill="#efb77d"/><rect x="226.25" y="45.25" width="45.25" height="45.25" fill="#eba760"/><polygon points="226.25,45.25 271.5,45.25 271.5,90.5" fill="#ecac68"/><rect x="271.5" y="0" width="90.5" height="90.5" fill="#ffffff"/><rect x="271.5" y="0" width="45.25" height="45.25" fill="#d27463"/><path d="M 271.5 0 A 45.25 45.25 0 0 0 316.75 45.25 L 316.75 0" fill="#fbedde"/><rect x="316.75" y="0" width="45.25" height="45.25" fill="#b6d6b2"/><path d="M 316.75 45.25 A 45.25 45.25 0 0 0 362 0 L 316.75 0" fill="#f6d8b8"/><rect x="271.5" y="45.25" width="45.25" height="45.25" fill="#f3cba1"/><path d="M 271.5 90.5 A 45.25 45.25 0 0 1  316.75 45.25 L 316.75 90.5" fill="#f3dad6"/><rect x="316.75" y="45.25" width="45.25" height="45.25" fill="#e9a052"/><path d="M 316.75 45.25 A 45.25 45.25 0 0 1 362 90.5 L 316.75 90.5" fill="#79b473"/><rect x="362" y="0" width="90.5" height="90.5" fill="#fdf8f7"/><rect x="362" y="0" width="90.5" height="90.5" fill="#eecac3"/><rect x="452.5" y="0" width="90.5" height="90.5" fill="#ffffff"/><rect x="452.5" y="0" width="45.25" height="45.25" fill="#e2a59a"/><circle cx="475.125" cy="22.625" r="22.625" fill="#fdf9f9"/><rect x="497.75" y="0" width="45.25" height="45.25" fill="#f5f9f5"/><rect x="497.75" y="0" width="45.25" height="45.25" fill="#e3aba1"/><rect x="452.5" y="45.25" width="45.25" height="45.25" fill="#b5d5b2"/><circle cx="475.125" cy="67.875" r="22.625" fill="#e79743"/><rect x="497.75" y="45.25" width="45.25" height="45.25" fill="#cf6d5c"/><rect x="497.75" y="45.25" width="45.25" height="45.25" fill="#e38624"/><rect x="543" y="0" width="90.5" height="90.5" fill="#ffffff"/><rect x="543" y="0" width="45.25" height="45.25" fill="#abd0a7"/><path d="M 543 0 A 45.25 45.25 0 0 1 588.25 45.25 L 543 45.25" fill="#7db677"/><rect x="588.25" y="0" width="45.25" height="45.25" fill="#f9fcf9"/><path d="M 588.25 45.25 A 45.25 45.25 0 0 1  633.5 0 L 633.5 45.25" fill="#f8e1c9"/><rect x="543" y="45.25" width="45.25" height="45.25" fill="#eff6ef"/><path d="M 543 90.5 A 45.25 45.25 0 0 0 588.25 45.25 L 543 45.25" fill="#fbfcfa"/><rect x="588.25" y="45.25" width="45.25" height="45.25" fill="#eba862"/><path d="M 588.25 45.25 A 45.25 45.25 0 0 0 633.5 90.5 L 633.5 45.25" fill="#e3aaa0"/><rect x="633.5" y="0" width="90.5" height="90.5" fill="#ffffff"/><rect x="633.5" y="0" width="45.25" height="45.25" fill="#85ba80"/><path d="M 633.5 45.25 A 45.25 45.25 0 0 0 678.75 0 L 633.5 0" fill="#eac0b8"/><rect x="678.75" y="0" width="45.25" height="45.25" fill="#e58e32"/><path d="M 678.75 0 A 45.25 45.25 0 0 0 724 45.25 L 724 0" fill="#c0dcbe"/><rect x="633.5" y="45.25" width="45.25" height="45.25" fill="#a1ca9d"/><path d="M 633.5 45.25 A 45.25 45.25 0 0 1 678.75 90.5 L 633.5 90.5" fill="#f9e4ce"/><rect x="678.75" y="45.25" width="45.25" height="45.25" fill="#f0be89"/><path d="M 678.75 90.5 A 45.25 45.25 0 0 1  724 45.25 L 724 90.5" fill="#cb614f"/><rect x="0" y="90.5" width="90.5" height="90.5" fill="#f3dcd8"/><rect x="0" y="90.5" width="90.5" height="90.5" fill="#89bc83"/><rect x="90.5" y="90.5" width="90.5" height="90.5" fill="#d17362"/><polygon points="90.5,90.5 181,90.5 90.5,181" fill="#84ba7e"/><rect x="181" y="90.5" width="90.5" height="90.5" fill="#ffffff"/><rect x="181" y="90.5" width="45.25" height="45.25" fill="#fdfaf9"/><path d="M 181 90.5 A 45.25 45.25 0 0 0 226.25 135.75 L 226.25 90.5" fill="#add1a9"/><rect x="226.25" y="90.5" width="45.25" height="45.25" fill="#d27666"/><path d="M 226.25 135.75 A 45.25 45.25 0 0 0 271.5 90.5 L 226.25 90.5" fill="#ce6957"/><rect x="181" y="135.75" width="45.25" height="45.25" fill="#d27564"/><path d="M 181 181 A 45.25 45.25 0 0 1  226.25 135.75 L 226.25 181" fill="#f7e7e5"/><rect x="226.25" y="135.75" width="45.25" height="45.25" fill="#f7dec3"/><path d="M 226.25 135.75 A 45.25 45.25 0 0 1 271.5 181 L 226.25 181" fill="#f1d4cf"/><rect x="271.5" y="90.5" width="90.5" height="90.5" fill="#99c695"/><rect x="271.5" y="90.5" width="90.5" height="90.5" fill="#aed2ab"/><rect x="362" y="90.5" width="90.5" height="90.5" fill="#71af6a"/><polygon points="452.5,90.5 452.5,181 362,181" fill="#d27666"/><rect x="452.5" y="90.5" width="90.5" height="90.5" fill="#fbf0e3"/><rect x="452.5" y="90.5" width="90.5" height="90.5" fill="#efb97f"/><rect x="543" y="90.5" width="90.5" height="90.5" fill="#d2e6d0"/><polygon points="543,90.5 633.5,90.5 633.5,181" fill="#f0bd88"/><rect x="633.5" y="90.5" width="90.5" height="90.5" fill="#f3cda3"/><polygon points="633.5,90.5 724,181 633.5,181" fill="#97c592"/><rect x="0" y="181" width="90.5" height="90.5" fill="#ffffff"/><rect x="0" y="181" width="45.25" height="45.25" fill="#d57e6f"/><polygon points="45.25,181 45.25,226.25 0,226.25" fill="#7bb474"/><rect x="45.25" y="181" width="45.25" height="45.25" fill="#b0d2ac"/><polygon points="45.25,181 90.5,226.25 45.25,226.25" fill="#fffdfc"/><rect x="0" y="226.25" width="45.25" height="45.25" fill="#e48a2b"/><polygon points="0,226.25 45.25,226.25 0,271.5" fill="#d7e9d5"/><rect x="45.25" y="226.25" width="45.25" height="45.25" fill="#efb980"/><polygon points="45.25,226.25 90.5,226.25 90.5,271.5" fill="#f5d3af"/><rect x="90.5" y="181" width="90.5" height="90.5" fill="#ffffff"/><rect x="90.5" y="181" width="45.25" height="45.25" fill="#edae6c"/><polygon points="135.75,181 135.75,226.25 90.5,226.25" fill="#fcf3ea"/><rect x="135.75" y="181" width="45.25" height="45.25" fill="#fffefe"/><polygon points="135.75,181 181,226.25 135.75,226.25" fill="#f1c08d"/><rect x="90.5" y="226.25" width="45.25" height="45.25" fill="#eba860"/><polygon points="90.5,226.25 135.75,226.25 135.75,271.5" fill="#8cbe87"/><rect x="135.75" y="226.25" width="45.25" height="45.25" fill="#6ead67"/><polygon points="135.75,226.25 181,226.25 135.75,271.5" fill="#d17362"/><rect x="181" y="181" width="90.5" height="90.5" fill="#ffffff"/><rect x="181" y="181" width="45.25" height="45.25" fill="#b2d3ae"/><path d="M 181 226.25 A 45.25 45.25 0 0 1  226.25 181 L 226.25 226.25" fill="#fdf9f9"/><rect x="226.25" y="181" width="45.25" height="45.25" fill="#d68172"/><path d="M 226.25 181 A 45.25 45.25 0 0 1 271.5 226.25 L 226.25 226.25" fill="#7ab473"/><rect x="181" y="226.25" width="45.25" height="45.25" fill="#f0bf8a"/><path d="M 181 226.25 A 45.25 45.25 0 0 0 226.25 271.5 L 226.25 226.25" fill="#b3d4b0"/><rect x="226.25" y="226.25" width="45.25" height="45.25" fill="#e3a89e"/><path d="M 226.25 271.5 A 45.25 45.25 0 0 0 271.5 226.25 L 226.25 226.25" fill="#cd6553"/><rect x="271.5" y="181" width="90.5" height="90.5" fill="#acd0a8"/><rect x="271.5" y="181" width="90.5" height="90.5" fill="#e69138"/><rect x="362" y="181" width="90.5" height="90.5" fill="#f5d3ae"/><rect x="362" y="181" width="90.5" height="90.5" fill="#db9285"/><rect x="452.5" y="181" width="90.5" height="90.5" fill="#ffffff"/><rect x="452.5" y="181" width="45.25" height="45.25" fill="#f8e9e7"/><path d="M 452.5 226.25 A 45.25 45.25 0 0 1  497.75 181 L 497.75 226.25" fill="#e89a47"/><rect x="497.75" y="181" width="45.25" height="45.25" fill="#f7e5e2"/><path d="M 497.75 181 A 45.25 45.25 0 0 1 543 226.25 L 497.75 226.25" fill="#f3cba1"/><rect x="452.5" y="226.25" width="45.25" height="45.25" fill="#f2d8d3"/><path d="M 452.5 226.25 A 45.25 45.25 0 0 0 497.75 271.5 L 497.75 226.25" fill="#d17463"/><rect x="497.75" y="226.25" width="45.25" height="45.25" fill="#efbb83"/><path d="M 497.75 271.5 A 45.25 45.25 0 0 0 543 226.25 L 497.75 226.25" fill="#87bb81"/><rect x="543" y="181" width="90.5" height="90.5" fill="#d98c7e"/><path d="M 543 271.5 A 90.5 90.5 0 0 0 633.5 181 L 543 181" fill="#fdfefd"/><rect x="633.5" y="181" width="90.5" height="90.5" fill="#ffffff"/><rect x="633.5" y="181" width="45.25" height="45.25" fill="#eecac4"/><circle cx="656.125" cy="203.625" r="22.625" fill="#9fc99a"/><rect x="678.75" y="181" width="45.25" height="45.25" fill="#fefcf9"/><rect x="678.75" y="181" width="45.25" height="45.25" fill="#fbf3f2"/><rect x="633.5" y="226.25" width="45.25" height="45.25" fill="#f5e0dc"/><circle cx="656.125" cy="248.875" r="22.625" fill="#e89b4a"/><rect x="678.75" y="226.25" width="45.25" height="45.25" fill="#edaf6e"/><rect x="678.75" y="226.25" width="45.25" height="45.25" fill="#d06f5e"/><rect x="0" y="271.5" width="90.5" height="90.5" fill="#ffffff"/><rect x="0" y="271.5" width="45.25" height="45.25" fill="#f8eae7"/><circle cx="22.625" cy="294.125" r="22.625" fill="#e7b7ae"/><rect x="45.25" y="271.5" width="45.25" height="45.25" fill="#6bab64"/><rect x="45.25" y="271.5" width="45.25" height="45.25" fill="#fcf3e9"/><rect x="0" y="316.75" width="45.25" height="45.25" fill="#f8dfc5"/><circle cx="22.625" cy="339.375" r="22.625" fill="#dc9386"/><rect x="45.25" y="316.75" width="45.25" height="45.25" fill="#f5d2ad"/><rect x="45.25" y="316.75" width="45.25" height="45.25" fill="#db9184"/><rect x="90.5" y="271.5" width="90.5" height="90.5" fill="#ffffff"/><rect x="90.5" y="271.5" width="45.25" height="45.25" fill="#f7e7e4"/><path d="M 90.5 316.75 A 45.25 45.25 0 0 1 135.75 271.5 L 135.75 282.8125 A 33.9375 33.9375 0 0 0 101.8125 316.75" fill="#cf6b59"/><rect x="135.75" y="271.5" width="45.25" height="45.25" fill="#d98a7c"/><path d="M 135.75 271.5 A 45.25 45.25 0 0 1 181 316.75 L 169.6875 316.75 A 33.9375 33.9375 0 0 0 135.75 282.8125" fill="#a8cea4"/><rect x="90.5" y="316.75" width="45.25" height="45.25" fill="#aacfa6"/><path d="M 90.5 316.75 A 45.25 45.25 0 0 0 135.75 362 L 135.75 350.6875 A 33.9375 33.9375 0 0 1 101.8125 316.75" fill="#d57f70"/><rect x="135.75" y="316.75" width="45.25" height="45.25" fill="#fcf7f6"/><path d="M 135.75 362 A 45.25 45.25 0 0 0 181 316.75 L 169.6875 316.75 A 33.9375 33.9375 0 0 1 135.75 350.6875" fill="#d47c6d"/><rect x="181" y="271.5" width="90.5" height="90.5" fill="#bddab9"/><rect x="181" y="271.5" width="90.5" height="90.5" fill="#df9d91"/><rect x="271.5" y="271.5" width="90.5" height="90.5" fill="#ffffff"/><rect x="271.5" y="271.5" width="45.25" height="45.25" fill="#e7963f"/><polygon points="316.75,271.5 316.75,316.75 271.5,316.75" fill="#f0bc85"/><rect x="316.75" y="271.5" width="45.25" height="45.25" fill="#dcebda"/><polygon points="316.75,271.5 362,316.75 316.75,316.75" fill="#eba861"/><rect x="271.5" y="316.75" width="45.25" height="45.25" fill="#e3831d"/><polygon points="271.5,316.75 316.75,316.75 271.5,362" fill="#6bab64"/><rect x="316.75" y="316.75" width="45.25" height="45.25" fill="#ebf4ea"/><polygon points="316.75,316.75 362,316.75 362,362" fill="#6ead68"/><rect x="362" y="271.5" width="90.5" height="90.5" fill="#c2dcbf"/><polygon points="452.5,271.5 452.5,362 362,362" fill="#e58b2c"/><rect x="452.5" y="271.5" width="90.5" height="90.5" fill="#f9fcf9"/><rect x="452.5" y="271.5" width="90.5" height="90.5" fill="#d8e9d6"/><rect x="543" y="271.5" width="90.5" height="90.5" fill="#ffffff"/><rect x="543" y="271.5" width="45.25" height="45.25" fill="#8abd85"/><polygon points="588.25,271.5 588.25,316.75 543,316.75" fill="#efb87f"/><rect x="588.25" y="271.5" width="45.25" height="45.25" fill="#8dbf87"/><polygon points="588.25,271.5 633.5,316.75 588.25,316.75" fill="#e89b49"/><rect x="543" y="316.75" width="45.25" height="45.25" fill="#a1ca9d"/><polygon points="543,316.75 588.25,316.75 588.25,362" fill="#9bc797"/><rect x="588.25" y="316.75" width="45.25" height="45.25" fill="#ce6957"/><polygon points="588.25,316.75 633.5,316.75 588.25,362" fill="#fffdfc"/><rect x="633.5" y="271.5" width="90.5" height="90.5" fill="#d3e6d1"/><path d="M 633.5 271.5 A 90.5 90.5 0 0 0 724 362 L 724 271.5" fill="#e3831d"/></g></svg>