<?xml version="1.0" standalone="no"?><svg xmlns:xlink="http://www.w3.org/1999/xlink" xmlns="http://www.w3.org/2000/svg" viewBox="0 0 1000 625" preserveAspectRatio="xMaxYMax slice"><g transform="scale(0.8802816901408451)"><rect x="0" y="0" width="1136" height="710" fill="#ffffff"/><rect x="0" y="0" width="71" height="71" fill="#ffffff"/><rect x="0" y="0" width="35.5" height="35.5" fill="#e6f0ec"/><g transform="translate(0,0) scale(1.775) rotate(0)"><rect width="20" height="10" fill="#f98b0d"/></g><rect x="35.5" y="0" width="35.5" height="35.5" fill="#f0f6f4"/><polygon points="35.5,0 71,0 35.5,35.5" fill="#db734a"/><rect x="0" y="35.5" width="35.5" height="35.5" fill="#b9d6cc"/><g transform="translate(0,35.5) scale(1.775) rotate(0)"><rect width="20" height="10" fill="#d35625"/></g><rect x="35.5" y="35.5" width="35.5" height="35.5" fill="#a2c8ba"/><g transform="translate(35.5,35.5) scale(1.775) rotate(0)"><path fill-rule="evenodd" clip-rule="evenodd" d="M10 20C15.5228 20 20 15.5228 20 10C20 4.47715 15.5228 0 10 0C4.47715 0 0 4.47715 0 10C0 15.5228 4.47715 20 10 20ZM10 17C13.866 17 17 13.866 17 10C17 6.13401 13.866 3 10 3C6.13401 3 3 6.13401 3 10C3 13.866 6.13401 17 10 17Z" fill="#fa941f"/></g><rect x="71" y="0" width="71" height="71" fill="#fdd09d"/><g transform="translate(71,0) scale(3.55) rotate(0)"><rect width="20" height="10" fill="#faece7"/></g><rect x="142" y="0" width="71" height="71" fill="#ffffff"/><rect x="142" y="0" width="35.5" height="35.5" fill="#fcba6f"/><path d="M 142 35.5 A 35.5 35.5 0 0 0 177.5 0 L 142 0" fill="#fcc586"/><rect x="177.5" y="0" width="35.5" height="35.5" fill="#aacdc1"/><path d="M 177.5 0 A 35.5 35.5 0 0 1  213 35.5 L 177.5 0 A 35.5 35.5 0 0 0 213 35.5" fill="#f4d6ca"/><rect x="142" y="35.5" width="35.5" height="35.5" fill="#fa9018"/><g transform="translate(142,35.5) scale(1.775) rotate(0)"><rect width="20" height="10" fill="#e7f1ee"/></g><rect x="177.5" y="35.5" width="35.5" height="35.5" fill="#f5f9f7"/><polygon points="177.5,35.5 213,35.5 177.5,71" fill="#fa9624"/><rect x="213" y="0" width="71" height="71" fill="#fa9a2d"/><g transform="translate(213,0) scale(3.55) rotate(0)"><path fill-rule="evenodd" clip-rule="evenodd" d="M10 20C15.5228 20 20 15.5228 20 10C20 4.47715 15.5228 0 10 0C4.47715 0 0 4.47715 0 10C0 15.5228 4.47715 20 10 20ZM10 17C13.866 17 17 13.866 17 10C17 6.13401 13.866 3 10 3C6.13401 3 3 6.13401 3 10C3 13.866 6.13401 17 10 17Z" fill="#9fc7b9"/></g><rect x="284" y="0" width="71" height="71" fill="#fccc94"/><path d="M 284 0 A 71 71 0 0 0 355 71 L 355 0" fill="#fef4e9"/><rect x="355" y="0" width="71" height="71" fill="#ffffff"/><rect x="355" y="0" width="35.5" height="35.5" fill="#e4efeb"/><path d="M 355 35.5 A 35.5 35.5 0 0 1  390.5 0 L 355 35.5 A 35.5 35.5 0 0 0 390.5 0" fill="#fffcf9"/><rect x="390.5" y="0" width="35.5" height="35.5" fill="#7cb29f"/><path d="M 390.5 35.5 A 35.5 35.5 0 0 1  426 0 L 390.5 35.5 A 35.5 35.5 0 0 0 426 0" fill="#fbb360"/><rect x="355" y="35.5" width="35.5" height="35.5" fill="#f98f15"/><path d="M 355 71 A 35.5 35.5 0 0 1  390.5 35.5 L 390.5 71" fill="#c6ddd5"/><rect x="390.5" y="35.5" width="35.5" height="35.5" fill="#d66234"/><polygon points="390.5,35.5 426,35.5 426,71" fill="#8fbdad"/><rect x="426" y="0" width="71" height="71" fill="#fdd6aa"/><polygon points="497,0 497,71 426,71" fill="#fccb93"/><rect x="497" y="0" width="71" height="71" fill="#fbb15c"/><polygon points="497,0 568,71 497,71" fill="#f7ded5"/><rect x="568" y="0" width="71" height="71" fill="#fee5c9"/><rect x="568" y="0" width="71" height="71" fill="#7bb19e"/><rect x="639" y="0" width="71" height="71" fill="#ffffff"/><rect x="639" y="0" width="35.5" height="35.5" fill="#fdd09d"/><g transform="translate(639,0) scale(1.775) rotate(0)"><rect width="20" height="10" fill="#aacdc1"/></g><rect x="674.5" y="0" width="35.5" height="35.5" fill="#fba544"/><path d="M 674.5 35.5 A 35.5 35.5 0 0 1  710 0 L 674.5 35.5 A 35.5 35.5 0 0 0 710 0" fill="#6ba892"/><rect x="639" y="35.5" width="35.5" height="35.5" fill="#d8673a"/><path d="M 639 71 A 35.5 35.5 0 0 1  674.5 35.5 L 674.5 71" fill="#fa9b2e"/><rect x="674.5" y="35.5" width="35.5" height="35.5" fill="#faece6"/><polygon points="674.5,35.5 710,71 674.5,71" fill="#d45a2a"/><rect x="710" y="0" width="71" height="71" fill="#91beae"/><g transform="translate(710,0) scale(3.55) rotate(0)"><path fill-rule="evenodd" clip-rule="evenodd" d="M10 20C15.5228 20 20 15.5228 20 10C20 4.47715 15.5228 0 10 0C4.47715 0 0 4.47715 0 10C0 15.5228 4.47715 20 10 20ZM10 17C13.866 17 17 13.866 17 10C17 6.13401 13.866 3 10 3C6.13401 3 3 6.13401 3 10C3 13.866 6.13401 17 10 17Z" fill="#f98602"/></g><rect x="781" y="0" width="71" height="71" fill="#fee6cc"/><polygon points="852,0 852,71 781,71" fill="#eab098"/><rect x="852" y="0" width="71" height="71" fill="#fffcf8"/><g transform="translate(852,0) scale(3.55) rotate(0)"><rect width="20" height="10" fill="#d96c41"/></g><rect x="923" y="0" width="71" height="71" fill="#ffffff"/><rect x="923" y="0" width="35.5" height="35.5" fill="#fdddb7"/><g transform="translate(923,0) scale(1.775) rotate(0)"><path fill-rule="evenodd" clip-rule="evenodd" d="M10 20C15.5228 20 20 15.5228 20 10C20 4.47715 15.5228 0 10 0C4.47715 0 0 4.47715 0 10C0 15.5228 4.47715 20 10 20ZM10 17C13.866 17 17 13.866 17 10C17 6.13401 13.866 3 10 3C6.13401 3 3 6.13401 3 10C3 13.866 6.13401 17 10 17Z" fill="#fee7ce"/></g><rect x="958.5" y="0" width="35.5" height="35.5" fill="#e69f82"/><polygon points="958.5,0 994,0 958.5,35.5" fill="#99c3b4"/><rect x="923" y="35.5" width="35.5" height="35.5" fill="#aecfc4"/><polygon points="923,35.5 958.5,35.5 958.5,71" fill="#a7cbbe"/><rect x="958.5" y="35.5" width="35.5" height="35.5" fill="#87b8a7"/><rect x="958.5" y="35.5" width="35.5" height="35.5" fill="#a8ccbf"/><rect x="994" y="0" width="71" height="71" fill="#ffffff"/><rect x="994" y="0" width="35.5" height="35.5" fill="#8fbdad"/><rect x="994" y="0" width="35.5" height="35.5" fill="#fba747"/><rect x="1029.5" y="0" width="35.5" height="35.5" fill="#accec2"/><g transform="translate(1029.5,0) scale(1.775) rotate(0)"><path fill-rule="evenodd" clip-rule="evenodd" d="M10 20C15.5228 20 20 15.5228 20 10C20 4.47715 15.5228 0 10 0C4.47715 0 0 4.47715 0 10C0 15.5228 4.47715 20 10 20ZM10 17C13.866 17 17 13.866 17 10C17 6.13401 13.866 3 10 3C6.13401 3 3 6.13401 3 10C3 13.866 6.13401 17 10 17Z" fill="#fbb360"/></g><rect x="994" y="35.5" width="35.5" height="35.5" fill="#d45a29"/><rect x="994" y="35.5" width="35.5" height="35.5" fill="#edbba7"/><rect x="1029.5" y="35.5" width="35.5" height="35.5" fill="#fffffe"/><polygon points="1029.5,35.5 1065,35.5 1065,71" fill="#afd0c4"/><rect x="1065" y="0" width="71" height="71" fill="#e9a990"/><path d="M 1065 71 A 71 71 0 0 0 1136 0 L 1065 0" fill="#fa9522"/><rect x="0" y="71" width="71" height="71" fill="#ffffff"/><rect x="0" y="71" width="35.5" height="35.5" fill="#d66233"/><g transform="translate(0,71) scale(1.775) rotate(0)"><path fill-rule="evenodd" clip-rule="evenodd" d="M10 20C15.5228 20 20 15.5228 20 10C20 4.47715 15.5228 0 10 0C4.47715 0 0 4.47715 0 10C0 15.5228 4.47715 20 10 20ZM10 17C13.866 17 17 13.866 17 10C17 6.13401 13.866 3 10 3C6.13401 3 3 6.13401 3 10C3 13.866 6.13401 17 10 17Z" fill="#e1ede9"/></g><rect x="35.5" y="71" width="35.5" height="35.5" fill="#fdf9f7"/><g transform="translate(35.5,71) scale(1.775) rotate(0)"><path fill-rule="evenodd" clip-rule="evenodd" d="M10 20C15.5228 20 20 15.5228 20 10C20 4.47715 15.5228 0 10 0C4.47715 0 0 4.47715 0 10C0 15.5228 4.47715 20 10 20ZM10 17C13.866 17 17 13.866 17 10C17 6.13401 13.866 3 10 3C6.13401 3 3 6.13401 3 10C3 13.866 6.13401 17 10 17Z" fill="#fff9f1"/></g><rect x="0" y="106.5" width="35.5" height="35.5" fill="#bfd9d0"/><g transform="translate(0,106.5) scale(1.775) rotate(0)"><path fill-rule="evenodd" clip-rule="evenodd" d="M10 20C15.5228 20 20 15.5228 20 10C20 4.47715 15.5228 0 10 0C4.47715 0 0 4.47715 0 10C0 15.5228 4.47715 20 10 20ZM10 17C13.866 17 17 13.866 17 10C17 6.13401 13.866 3 10 3C6.13401 3 3 6.13401 3 10C3 13.866 6.13401 17 10 17Z" fill="#fba94b"/></g><rect x="35.5" y="106.5" width="35.5" height="35.5" fill="#8dbcab"/><polygon points="71,106.5 71,142 35.5,142" fill="#faebe5"/><rect x="71" y="71" width="71" height="71" fill="#71ab96"/><path d="M 71 71 A 71 71 0 0 1 142 142 L 71 142" fill="#fba749"/><rect x="142" y="71" width="71" height="71" fill="#c1dbd2"/><polygon points="142,71 213,71 142,142" fill="#f98704"/><rect x="213" y="71" width="71" height="71" fill="#fa911b"/><g transform="translate(213,71) scale(3.55) rotate(0)"><rect width="20" height="10" fill="#d76538"/></g><rect x="284" y="71" width="71" height="71" fill="#ffffff"/><rect x="284" y="71" width="35.5" height="35.5" fill="#91beae"/><rect x="284" y="71" width="35.5" height="35.5" fill="#f98808"/><rect x="319.5" y="71" width="35.5" height="35.5" fill="#fa992a"/><path d="M 319.5 106.5 A 35.5 35.5 0 0 0 355 71 L 319.5 71" fill="#9dc5b7"/><rect x="284" y="106.5" width="35.5" height="35.5" fill="#f4d6ca"/><g transform="translate(284,106.5) scale(1.775) rotate(0)"><path fill-rule="evenodd" clip-rule="evenodd" d="M10 20C15.5228 20 20 15.5228 20 10C20 4.47715 15.5228 0 10 0C4.47715 0 0 4.47715 0 10C0 15.5228 4.47715 20 10 20ZM10 17C13.866 17 17 13.866 17 10C17 6.13401 13.866 3 10 3C6.13401 3 3 6.13401 3 10C3 13.866 6.13401 17 10 17Z" fill="#7fb4a1"/></g><rect x="319.5" y="106.5" width="35.5" height="35.5" fill="#fa931f"/><rect x="319.5" y="106.5" width="35.5" height="35.5" fill="#77af9b"/><rect x="355" y="71" width="71" height="71" fill="#fbefea"/><polygon points="355,71 426,142 355,142" fill="#faeae4"/><rect x="426" y="71" width="71" height="71" fill="#f7faf9"/><polygon points="426,71 497,142 426,142" fill="#c6ddd5"/><rect x="497" y="71" width="71" height="71" fill="#ffffff"/><rect x="497" y="71" width="35.5" height="35.5" fill="#b1d1c6"/><g transform="translate(497,71) scale(1.775) rotate(0)"><path fill-rule="evenodd" clip-rule="evenodd" d="M10 20C15.5228 20 20 15.5228 20 10C20 4.47715 15.5228 0 10 0C4.47715 0 0 4.47715 0 10C0 15.5228 4.47715 20 10 20ZM10 17C13.866 17 17 13.866 17 10C17 6.13401 13.866 3 10 3C6.13401 3 3 6.13401 3 10C3 13.866 6.13401 17 10 17Z" fill="#d0e3dc"/></g><rect x="532.5" y="71" width="35.5" height="35.5" fill="#e7a186"/><g transform="translate(532.5,71) scale(1.775) rotate(0)"><path fill-rule="evenodd" clip-rule="evenodd" d="M10 20C15.5228 20 20 15.5228 20 10C20 4.47715 15.5228 0 10 0C4.47715 0 0 4.47715 0 10C0 15.5228 4.47715 20 10 20ZM10 17C13.866 17 17 13.866 17 10C17 6.13401 13.866 3 10 3C6.13401 3 3 6.13401 3 10C3 13.866 6.13401 17 10 17Z" fill="#e49576"/></g><rect x="497" y="106.5" width="35.5" height="35.5" fill="#f3cfc1"/><polygon points="532.5,106.5 532.5,142 497,142" fill="#a3c9bb"/><rect x="532.5" y="106.5" width="35.5" height="35.5" fill="#fa9019"/><path d="M 532.5 142 A 35.5 35.5 0 0 0 568 106.5 L 532.5 106.5" fill="#68a690"/><rect x="568" y="71" width="71" height="71" fill="#ffffff"/><rect x="568" y="71" width="35.5" height="35.5" fill="#f98e14"/><g transform="translate(568,71) scale(1.775) rotate(0)"><path fill-rule="evenodd" clip-rule="evenodd" d="M10 20C15.5228 20 20 15.5228 20 10C20 4.47715 15.5228 0 10 0C4.47715 0 0 4.47715 0 10C0 15.5228 4.47715 20 10 20ZM10 17C13.866 17 17 13.866 17 10C17 6.13401 13.866 3 10 3C6.13401 3 3 6.13401 3 10C3 13.866 6.13401 17 10 17Z" fill="#e4987a"/></g><rect x="603.5" y="71" width="35.5" height="35.5" fill="#c3dcd3"/><g transform="translate(603.5,71) scale(1.775) rotate(0)"><path fill-rule="evenodd" clip-rule="evenodd" d="M10 20C15.5228 20 20 15.5228 20 10C20 4.47715 15.5228 0 10 0C4.47715 0 0 4.47715 0 10C0 15.5228 4.47715 20 10 20ZM10 17C13.866 17 17 13.866 17 10C17 6.13401 13.866 3 10 3C6.13401 3 3 6.13401 3 10C3 13.866 6.13401 17 10 17Z" fill="#e08663"/></g><rect x="568" y="106.5" width="35.5" height="35.5" fill="#85b7a5"/><rect x="568" y="106.5" width="35.5" height="35.5" fill="#77af9b"/><rect x="603.5" y="106.5" width="35.5" height="35.5" fill="#fee2c3"/><polygon points="639,106.5 639,142 603.5,142" fill="#85b7a5"/><rect x="639" y="71" width="71" height="71" fill="#ffffff"/><rect x="639" y="71" width="35.5" height="35.5" fill="#9bc4b5"/><g transform="translate(639,71) scale(1.775) rotate(0)"><rect width="20" height="10" fill="#fcc688"/></g><rect x="674.5" y="71" width="35.5" height="35.5" fill="#d55d2e"/><g transform="translate(674.5,71) scale(1.775) rotate(0)"><path fill-rule="evenodd" clip-rule="evenodd" d="M10 20C15.5228 20 20 15.5228 20 10C20 4.47715 15.5228 0 10 0C4.47715 0 0 4.47715 0 10C0 15.5228 4.47715 20 10 20ZM10 17C13.866 17 17 13.866 17 10C17 6.13401 13.866 3 10 3C6.13401 3 3 6.13401 3 10C3 13.866 6.13401 17 10 17Z" fill="#fcb96e"/></g><rect x="639" y="106.5" width="35.5" height="35.5" fill="#fbb15c"/><g transform="translate(639,106.5) scale(1.775) rotate(0)"><rect width="20" height="10" fill="#fee2c3"/></g><rect x="674.5" y="106.5" width="35.5" height="35.5" fill="#e7a388"/><path d="M 674.5 106.5 A 35.5 35.5 0 0 1  710 142 L 674.5 106.5 A 35.5 35.5 0 0 0 710 142" fill="#e59b7d"/><rect x="710" y="71" width="71" height="71" fill="#fee4c7"/><polygon points="710,71 781,71 781,142" fill="#c8dfd7"/><rect x="781" y="71" width="71" height="71" fill="#ffffff"/><rect x="781" y="71" width="35.5" height="35.5" fill="#eebca9"/><path d="M 781 106.5 A 35.5 35.5 0 0 0 816.5 71 L 781 71" fill="#b1d1c6"/><rect x="816.5" y="71" width="35.5" height="35.5" fill="#faa13b"/><polygon points="852,71 852,106.5 816.5,106.5" fill="#fbab51"/><rect x="781" y="106.5" width="35.5" height="35.5" fill="#cce1d9"/><g transform="translate(781,106.5) scale(1.775) rotate(0)"><rect width="20" height="10" fill="#fddcb7"/></g><rect x="816.5" y="106.5" width="35.5" height="35.5" fill="#eebba8"/><rect x="816.5" y="106.5" width="35.5" height="35.5" fill="#fef2e3"/><rect x="852" y="71" width="71" height="71" fill="#ffffff"/><rect x="852" y="71" width="35.5" height="35.5" fill="#e39474"/><g transform="translate(852,71) scale(1.775) rotate(0)"><path fill-rule="evenodd" clip-rule="evenodd" d="M10 20C15.5228 20 20 15.5228 20 10C20 4.47715 15.5228 0 10 0C4.47715 0 0 4.47715 0 10C0 15.5228 4.47715 20 10 20ZM10 17C13.866 17 17 13.866 17 10C17 6.13401 13.866 3 10 3C6.13401 3 3 6.13401 3 10C3 13.866 6.13401 17 10 17Z" fill="#6faa95"/></g><rect x="887.5" y="71" width="35.5" height="35.5" fill="#f6ded4"/><g transform="translate(887.5,71) scale(1.775) rotate(0)"><rect width="20" height="10" fill="#ecf4f1"/></g><rect x="852" y="106.5" width="35.5" height="35.5" fill="#b8d5cb"/><g transform="translate(852,106.5) scale(1.775) rotate(0)"><rect width="20" height="10" fill="#fdce99"/></g><rect x="887.5" y="106.5" width="35.5" height="35.5" fill="#cce1d9"/><polygon points="887.5,106.5 923,142 887.5,142" fill="#d2521f"/><rect x="923" y="71" width="71" height="71" fill="#ffffff"/><rect x="923" y="71" width="35.5" height="35.5" fill="#a2c8bb"/><polygon points="923,71 958.5,71 923,106.5" fill="#fcb96e"/><rect x="958.5" y="71" width="35.5" height="35.5" fill="#7fb4a1"/><path d="M 958.5 106.5 A 35.5 35.5 0 0 1  994 71 L 994 106.5" fill="#fbad54"/><rect x="923" y="106.5" width="35.5" height="35.5" fill="#e59b7d"/><g transform="translate(923,106.5) scale(1.775) rotate(0)"><rect width="20" height="10" fill="#fbb667"/></g><rect x="958.5" y="106.5" width="35.5" height="35.5" fill="#fee6cb"/><rect x="958.5" y="106.5" width="35.5" height="35.5" fill="#fcbe78"/><rect x="994" y="71" width="71" height="71" fill="#ffffff"/><rect x="994" y="71" width="35.5" height="35.5" fill="#7ab19e"/><rect x="994" y="71" width="35.5" height="35.5" fill="#eaf2ef"/><rect x="1029.5" y="71" width="35.5" height="35.5" fill="#fbb566"/><path d="M 1029.5 106.5 A 35.5 35.5 0 0 0 1065 71 L 1029.5 71" fill="#f98a0b"/><rect x="994" y="106.5" width="35.5" height="35.5" fill="#f9890a"/><g transform="translate(994,106.5) scale(1.775) rotate(0)"><rect width="20" height="10" fill="#feefde"/></g><rect x="1029.5" y="106.5" width="35.5" height="35.5" fill="#fbb05b"/><rect x="1029.5" y="106.5" width="35.5" height="35.5" fill="#b7d5ca"/><rect x="1065" y="71" width="71" height="71" fill="#fcbb71"/><rect x="1065" y="71" width="71" height="71" fill="#fff8f1"/><rect x="0" y="142" width="71" height="71" fill="#ffffff"/><rect x="0" y="142" width="35.5" height="35.5" fill="#b8d5cb"/><g transform="translate(0,142) scale(1.775) rotate(0)"><rect width="20" height="10" fill="#dd7a54"/></g><rect x="35.5" y="142" width="35.5" height="35.5" fill="#fcc07c"/><polygon points="71,142 71,177.5 35.5,177.5" fill="#e9f2ef"/><rect x="0" y="177.5" width="35.5" height="35.5" fill="#e3eeea"/><path d="M 0 177.5 A 35.5 35.5 0 0 1 35.5 213 L 0 213" fill="#fefcfb"/><rect x="35.5" y="177.5" width="35.5" height="35.5" fill="#f4d6c9"/><g transform="translate(35.5,177.5) scale(1.775) rotate(0)"><rect width="20" height="10" fill="#fdce99"/></g><rect x="71" y="142" width="71" height="71" fill="#8cbbab"/><g transform="translate(71,142) scale(3.55) rotate(0)"><rect width="20" height="10" fill="#8ebcac"/></g><rect x="142" y="142" width="71" height="71" fill="#fef4e9"/><rect x="142" y="142" width="71" height="71" fill="#a1c8ba"/><rect x="213" y="142" width="71" height="71" fill="#cbe0d9"/><g transform="translate(213,142) scale(3.55) rotate(0)"><rect width="20" height="10" fill="#d76335"/></g><rect x="284" y="142" width="71" height="71" fill="#ffffff"/><rect x="284" y="142" width="35.5" height="35.5" fill="#e9f2ef"/><path d="M 284 142 A 35.5 35.5 0 0 1  319.5 177.5 L 284 142 A 35.5 35.5 0 0 0 319.5 177.5" fill="#fff7ee"/><rect x="319.5" y="142" width="35.5" height="35.5" fill="#fcc585"/><polygon points="319.5,142 355,142 355,177.5" fill="#d2511e"/><rect x="284" y="177.5" width="35.5" height="35.5" fill="#69a791"/><path d="M 284 177.5 A 35.5 35.5 0 0 1  319.5 213 L 284 177.5 A 35.5 35.5 0 0 0 319.5 213" fill="#faeae4"/><rect x="319.5" y="177.5" width="35.5" height="35.5" fill="#fcc78a"/><g transform="translate(319.5,177.5) scale(1.775) rotate(0)"><rect width="20" height="10" fill="#f5dacf"/></g><rect x="355" y="142" width="71" height="71" fill="#ffffff"/><rect x="355" y="142" width="35.5" height="35.5" fill="#d76336"/><rect x="355" y="142" width="35.5" height="35.5" fill="#edbba7"/><rect x="390.5" y="142" width="35.5" height="35.5" fill="#fdd9b0"/><path d="M 390.5 177.5 A 35.5 35.5 0 0 0 426 142 L 390.5 142" fill="#a5cabd"/><rect x="355" y="177.5" width="35.5" height="35.5" fill="#fee8cf"/><path d="M 355 177.5 A 35.5 35.5 0 0 1 390.5 213 L 355 213" fill="#f2cdbe"/><rect x="390.5" y="177.5" width="35.5" height="35.5" fill="#f98d11"/><path d="M 390.5 177.5 A 35.5 35.5 0 0 1  426 213 L 390.5 177.5 A 35.5 35.5 0 0 0 426 213" fill="#faa13b"/><rect x="426" y="142" width="71" height="71" fill="#d7e8e2"/><g transform="translate(426,142) scale(3.55) rotate(0)"><path fill-rule="evenodd" clip-rule="evenodd" d="M10 20C15.5228 20 20 15.5228 20 10C20 4.47715 15.5228 0 10 0C4.47715 0 0 4.47715 0 10C0 15.5228 4.47715 20 10 20ZM10 17C13.866 17 17 13.866 17 10C17 6.13401 13.866 3 10 3C6.13401 3 3 6.13401 3 10C3 13.866 6.13401 17 10 17Z" fill="#e18b69"/></g><rect x="497" y="142" width="71" height="71" fill="#ffffff"/><rect x="497" y="142" width="35.5" height="35.5" fill="#e2eee9"/><path d="M 497 142 A 35.5 35.5 0 0 0 532.5 177.5 L 532.5 142" fill="#f2cebf"/><rect x="532.5" y="142" width="35.5" height="35.5" fill="#e28e6d"/><rect x="532.5" y="142" width="35.5" height="35.5" fill="#fcca91"/><rect x="497" y="177.5" width="35.5" height="35.5" fill="#fee3c5"/><g transform="translate(497,177.5) scale(1.775) rotate(0)"><path fill-rule="evenodd" clip-rule="evenodd" d="M10 20C15.5228 20 20 15.5228 20 10C20 4.47715 15.5228 0 10 0C4.47715 0 0 4.47715 0 10C0 15.5228 4.47715 20 10 20ZM10 17C13.866 17 17 13.866 17 10C17 6.13401 13.866 3 10 3C6.13401 3 3 6.13401 3 10C3 13.866 6.13401 17 10 17Z" fill="#81b5a2"/></g><rect x="532.5" y="177.5" width="35.5" height="35.5" fill="#fddab2"/><path d="M 532.5 213 A 35.5 35.5 0 0 1  568 177.5 L 532.5 213 A 35.5 35.5 0 0 0 568 177.5" fill="#e4efeb"/><rect x="568" y="142" width="71" height="71" fill="#fa9018"/><g transform="translate(568,142) scale(3.55) rotate(0)"><rect width="20" height="10" fill="#f3cfc1"/></g><rect x="639" y="142" width="71" height="71" fill="#ffffff"/><rect x="639" y="142" width="35.5" height="35.5" fill="#e5997b"/><polygon points="674.5,142 674.5,177.5 639,177.5" fill="#98c2b3"/><rect x="674.5" y="142" width="35.5" height="35.5" fill="#fafcfb"/><g transform="translate(674.5,142) scale(1.775) rotate(0)"><path fill-rule="evenodd" clip-rule="evenodd" d="M10 20C15.5228 20 20 15.5228 20 10C20 4.47715 15.5228 0 10 0C4.47715 0 0 4.47715 0 10C0 15.5228 4.47715 20 10 20ZM10 17C13.866 17 17 13.866 17 10C17 6.13401 13.866 3 10 3C6.13401 3 3 6.13401 3 10C3 13.866 6.13401 17 10 17Z" fill="#eff5f3"/></g><rect x="639" y="177.5" width="35.5" height="35.5" fill="#fcbb71"/><path d="M 639 213 A 35.5 35.5 0 0 1  674.5 177.5 L 674.5 213" fill="#fddcb6"/><rect x="674.5" y="177.5" width="35.5" height="35.5" fill="#fccb94"/><polygon points="674.5,177.5 710,177.5 710,213" fill="#fbfdfc"/><rect x="710" y="142" width="71" height="71" fill="#ffffff"/><rect x="710" y="142" width="35.5" height="35.5" fill="#fbeee9"/><rect x="710" y="142" width="35.5" height="35.5" fill="#fee3c5"/><rect x="745.5" y="142" width="35.5" height="35.5" fill="#fef4e7"/><polygon points="745.5,142 781,142 745.5,177.5" fill="#fdf8f6"/><rect x="710" y="177.5" width="35.5" height="35.5" fill="#e8f2ee"/><g transform="translate(710,177.5) scale(1.775) rotate(0)"><rect width="20" height="10" fill="#fafcfc"/></g><rect x="745.5" y="177.5" width="35.5" height="35.5" fill="#e18967"/><g transform="translate(745.5,177.5) scale(1.775) rotate(0)"><rect width="20" height="10" fill="#a1c8ba"/></g><rect x="781" y="142" width="71" height="71" fill="#ffffff"/><rect x="781" y="142" width="35.5" height="35.5" fill="#fffefd"/><path d="M 781 177.5 A 35.5 35.5 0 0 1  816.5 142 L 816.5 177.5" fill="#e3efeb"/><rect x="816.5" y="142" width="35.5" height="35.5" fill="#d76335"/><polygon points="816.5,142 852,142 816.5,177.5" fill="#fcbc74"/><rect x="781" y="177.5" width="35.5" height="35.5" fill="#e9aa91"/><g transform="translate(781,177.5) scale(1.775) rotate(0)"><path fill-rule="evenodd" clip-rule="evenodd" d="M10 20C15.5228 20 20 15.5228 20 10C20 4.47715 15.5228 0 10 0C4.47715 0 0 4.47715 0 10C0 15.5228 4.47715 20 10 20ZM10 17C13.866 17 17 13.866 17 10C17 6.13401 13.866 3 10 3C6.13401 3 3 6.13401 3 10C3 13.866 6.13401 17 10 17Z" fill="#de815c"/></g><rect x="816.5" y="177.5" width="35.5" height="35.5" fill="#fa9d33"/><g transform="translate(816.5,177.5) scale(1.775) rotate(0)"><rect width="20" height="10" fill="#d66234"/></g><rect x="852" y="142" width="71" height="71" fill="#ffffff"/><rect x="852" y="142" width="35.5" height="35.5" fill="#fa9d33"/><polygon points="852,142 887.5,142 887.5,177.5" fill="#da6e44"/><rect x="887.5" y="142" width="35.5" height="35.5" fill="#e18c6a"/><path d="M 887.5 142 A 35.5 35.5 0 0 1  923 177.5 L 887.5 142 A 35.5 35.5 0 0 0 923 177.5" fill="#e49778"/><rect x="852" y="177.5" width="35.5" height="35.5" fill="#a9cdc0"/><path d="M 852 213 A 35.5 35.5 0 0 1  887.5 177.5 L 852 213 A 35.5 35.5 0 0 0 887.5 177.5" fill="#c6ddd5"/><rect x="887.5" y="177.5" width="35.5" height="35.5" fill="#fcbd76"/><polygon points="887.5,177.5 923,177.5 923,213" fill="#e2eeea"/><rect x="923" y="142" width="71" height="71" fill="#fefdfc"/><g transform="translate(923,142) scale(3.55) rotate(0)"><rect width="20" height="10" fill="#accec2"/></g><rect x="994" y="142" width="71" height="71" fill="#6ba892"/><rect x="994" y="142" width="71" height="71" fill="#b4d3c8"/><rect x="1065" y="142" width="71" height="71" fill="#68a690"/><path d="M 1065 142 A 71 71 0 0 0 1136 213 L 1136 142" fill="#ebb29c"/><rect x="0" y="213" width="71" height="71" fill="#92bfaf"/><rect x="0" y="213" width="71" height="71" fill="#da7248"/><rect x="71" y="213" width="71" height="71" fill="#74ad99"/><polygon points="142,213 142,284 71,284" fill="#fa921c"/><rect x="142" y="213" width="71" height="71" fill="#9ec6b8"/><g transform="translate(142,213) scale(3.55) rotate(0)"><path fill-rule="evenodd" clip-rule="evenodd" d="M10 20C15.5228 20 20 15.5228 20 10C20 4.47715 15.5228 0 10 0C4.47715 0 0 4.47715 0 10C0 15.5228 4.47715 20 10 20ZM10 17C13.866 17 17 13.866 17 10C17 6.13401 13.866 3 10 3C6.13401 3 3 6.13401 3 10C3 13.866 6.13401 17 10 17Z" fill="#d8e8e3"/></g><rect x="213" y="213" width="71" height="71" fill="#ffffff"/><rect x="213" y="213" width="35.5" height="35.5" fill="#d7e8e2"/><polygon points="213,213 248.5,248.5 213,248.5" fill="#efc0ad"/><rect x="248.5" y="213" width="35.5" height="35.5" fill="#fa9c31"/><rect x="248.5" y="213" width="35.5" height="35.5" fill="#aacdc0"/><rect x="213" y="248.5" width="35.5" height="35.5" fill="#fddab2"/><rect x="213" y="248.5" width="35.5" height="35.5" fill="#e8a58b"/><rect x="248.5" y="248.5" width="35.5" height="35.5" fill="#e9f2ef"/><rect x="248.5" y="248.5" width="35.5" height="35.5" fill="#f8e2da"/><rect x="284" y="213" width="71" height="71" fill="#ffffff"/><rect x="284" y="213" width="35.5" height="35.5" fill="#88b9a7"/><polygon points="284,213 319.5,213 284,248.5" fill="#f1c8b7"/><rect x="319.5" y="213" width="35.5" height="35.5" fill="#fcca90"/><path d="M 319.5 248.5 A 35.5 35.5 0 0 0 355 213 L 319.5 213" fill="#fef1e3"/><rect x="284" y="248.5" width="35.5" height="35.5" fill="#e59b7d"/><rect x="284" y="248.5" width="35.5" height="35.5" fill="#f4d4c7"/><rect x="319.5" y="248.5" width="35.5" height="35.5" fill="#c9dfd7"/><polygon points="319.5,248.5 355,248.5 319.5,284" fill="#eaad95"/><rect x="355" y="213" width="71" height="71" fill="#e8a48a"/><g transform="translate(355,213) scale(3.55) rotate(0)"><rect width="20" height="10" fill="#e5efec"/></g><rect x="426" y="213" width="71" height="71" fill="#fa9624"/><polygon points="497,213 497,284 426,284" fill="#f9eae3"/><rect x="497" y="213" width="71" height="71" fill="#ffffff"/><rect x="497" y="213" width="35.5" height="35.5" fill="#de815c"/><g transform="translate(497,213) scale(1.775) rotate(0)"><path fill-rule="evenodd" clip-rule="evenodd" d="M10 20C15.5228 20 20 15.5228 20 10C20 4.47715 15.5228 0 10 0C4.47715 0 0 4.47715 0 10C0 15.5228 4.47715 20 10 20ZM10 17C13.866 17 17 13.866 17 10C17 6.13401 13.866 3 10 3C6.13401 3 3 6.13401 3 10C3 13.866 6.13401 17 10 17Z" fill="#f4d4c7"/></g><rect x="532.5" y="213" width="35.5" height="35.5" fill="#f9fbfb"/><polygon points="532.5,213 568,213 568,248.5" fill="#fef0df"/><rect x="497" y="248.5" width="35.5" height="35.5" fill="#fff7ee"/><polygon points="532.5,248.5 532.5,284 497,284" fill="#70ab96"/><rect x="532.5" y="248.5" width="35.5" height="35.5" fill="#eaad95"/><g transform="translate(532.5,248.5) scale(1.775) rotate(0)"><path fill-rule="evenodd" clip-rule="evenodd" d="M10 20C15.5228 20 20 15.5228 20 10C20 4.47715 15.5228 0 10 0C4.47715 0 0 4.47715 0 10C0 15.5228 4.47715 20 10 20ZM10 17C13.866 17 17 13.866 17 10C17 6.13401 13.866 3 10 3C6.13401 3 3 6.13401 3 10C3 13.866 6.13401 17 10 17Z" fill="#e8a68c"/></g><rect x="568" y="213" width="71" height="71" fill="#ffffff"/><rect x="568" y="213" width="35.5" height="35.5" fill="#aacdc1"/><polygon points="603.5,213 603.5,248.5 568,248.5" fill="#e0ede8"/><rect x="603.5" y="213" width="35.5" height="35.5" fill="#6faa95"/><polygon points="603.5,213 639,213 639,248.5" fill="#f9e8e1"/><rect x="568" y="248.5" width="35.5" height="35.5" fill="#f8e2da"/><polygon points="568,248.5 603.5,248.5 568,284" fill="#fbab51"/><rect x="603.5" y="248.5" width="35.5" height="35.5" fill="#c2dbd2"/><g transform="translate(603.5,248.5) scale(1.775) rotate(0)"><path fill-rule="evenodd" clip-rule="evenodd" d="M10 20C15.5228 20 20 15.5228 20 10C20 4.47715 15.5228 0 10 0C4.47715 0 0 4.47715 0 10C0 15.5228 4.47715 20 10 20ZM10 17C13.866 17 17 13.866 17 10C17 6.13401 13.866 3 10 3C6.13401 3 3 6.13401 3 10C3 13.866 6.13401 17 10 17Z" fill="#fdf5f3"/></g><rect x="639" y="213" width="71" height="71" fill="#ffffff"/><rect x="639" y="213" width="35.5" height="35.5" fill="#d8683c"/><polygon points="639,213 674.5,248.5 639,248.5" fill="#fa911a"/><rect x="674.5" y="213" width="35.5" height="35.5" fill="#accec2"/><g transform="translate(674.5,213) scale(1.775) rotate(0)"><rect width="20" height="10" fill="#d25320"/></g><rect x="639" y="248.5" width="35.5" height="35.5" fill="#cee2db"/><g transform="translate(639,248.5) scale(1.775) rotate(0)"><rect width="20" height="10" fill="#fbb768"/></g><rect x="674.5" y="248.5" width="35.5" height="35.5" fill="#e4efeb"/><path d="M 674.5 284 A 35.5 35.5 0 0 1  710 248.5 L 710 284" fill="#e18c6a"/><rect x="710" y="213" width="71" height="71" fill="#ffffff"/><rect x="710" y="213" width="35.5" height="35.5" fill="#e18b69"/><g transform="translate(710,213) scale(1.775) rotate(0)"><rect width="20" height="10" fill="#eebeab"/></g><rect x="745.5" y="213" width="35.5" height="35.5" fill="#a8ccbf"/><rect x="745.5" y="213" width="35.5" height="35.5" fill="#fba543"/><rect x="710" y="248.5" width="35.5" height="35.5" fill="#adcfc3"/><rect x="710" y="248.5" width="35.5" height="35.5" fill="#eff5f3"/><rect x="745.5" y="248.5" width="35.5" height="35.5" fill="#df8460"/><polygon points="745.5,248.5 781,248.5 781,284" fill="#8ebdac"/><rect x="781" y="213" width="71" height="71" fill="#fa9b2e"/><g transform="translate(781,213) scale(3.55) rotate(0)"><path fill-rule="evenodd" clip-rule="evenodd" d="M10 20C15.5228 20 20 15.5228 20 10C20 4.47715 15.5228 0 10 0C4.47715 0 0 4.47715 0 10C0 15.5228 4.47715 20 10 20ZM10 17C13.866 17 17 13.866 17 10C17 6.13401 13.866 3 10 3C6.13401 3 3 6.13401 3 10C3 13.866 6.13401 17 10 17Z" fill="#fdd5a8"/></g><rect x="852" y="213" width="71" height="71" fill="#a8ccbf"/><path d="M 852 284 A 71 71 0 0 0 923 213 L 852 213" fill="#faa23d"/><rect x="923" y="213" width="71" height="71" fill="#ffffff"/><rect x="923" y="213" width="35.5" height="35.5" fill="#f2cec0"/><g transform="translate(923,213) scale(1.775) rotate(0)"><rect width="20" height="10" fill="#f4d3c6"/></g><rect x="958.5" y="213" width="35.5" height="35.5" fill="#fbac52"/><polygon points="994,213 994,248.5 958.5,248.5" fill="#fbb05b"/><rect x="923" y="248.5" width="35.5" height="35.5" fill="#e9a990"/><g transform="translate(923,248.5) scale(1.775) rotate(0)"><rect width="20" height="10" fill="#da7147"/></g><rect x="958.5" y="248.5" width="35.5" height="35.5" fill="#e18967"/><g transform="translate(958.5,248.5) scale(1.775) rotate(0)"><path fill-rule="evenodd" clip-rule="evenodd" d="M10 20C15.5228 20 20 15.5228 20 10C20 4.47715 15.5228 0 10 0C4.47715 0 0 4.47715 0 10C0 15.5228 4.47715 20 10 20ZM10 17C13.866 17 17 13.866 17 10C17 6.13401 13.866 3 10 3C6.13401 3 3 6.13401 3 10C3 13.866 6.13401 17 10 17Z" fill="#fccb92"/></g><rect x="994" y="213" width="71" height="71" fill="#fcb86b"/><g transform="translate(994,213) scale(3.55) rotate(0)"><rect width="20" height="10" fill="#fee5c9"/></g><rect x="1065" y="213" width="71" height="71" fill="#fcfdfd"/><rect x="1065" y="213" width="71" height="71" fill="#feead4"/><rect x="0" y="284" width="71" height="71" fill="#cee2db"/><rect x="0" y="284" width="71" height="71" fill="#c4dcd4"/><rect x="71" y="284" width="71" height="71" fill="#ffffff"/><rect x="71" y="284" width="35.5" height="35.5" fill="#efc0ad"/><g transform="translate(71,284) scale(1.775) rotate(0)"><rect width="20" height="10" fill="#fbb667"/></g><rect x="106.5" y="284" width="35.5" height="35.5" fill="#f98f15"/><path d="M 106.5 284 A 35.5 35.5 0 0 1 142 319.5 L 106.5 319.5" fill="#f98706"/><rect x="71" y="319.5" width="35.5" height="35.5" fill="#fdcc96"/><rect x="71" y="319.5" width="35.5" height="35.5" fill="#e08865"/><rect x="106.5" y="319.5" width="35.5" height="35.5" fill="#f4d5c8"/><polygon points="106.5,319.5 142,319.5 106.5,355" fill="#e39474"/><rect x="142" y="284" width="71" height="71" fill="#ffffff"/><rect x="142" y="284" width="35.5" height="35.5" fill="#f98d12"/><g transform="translate(142,284) scale(1.775) rotate(0)"><rect width="20" height="10" fill="#96c1b2"/></g><rect x="177.5" y="284" width="35.5" height="35.5" fill="#dd7b54"/><g transform="translate(177.5,284) scale(1.775) rotate(0)"><rect width="20" height="10" fill="#fdcc96"/></g><rect x="142" y="319.5" width="35.5" height="35.5" fill="#c8dfd7"/><path d="M 142 355 A 35.5 35.5 0 0 1  177.5 319.5 L 142 355 A 35.5 35.5 0 0 0 177.5 319.5" fill="#a4c9bc"/><rect x="177.5" y="319.5" width="35.5" height="35.5" fill="#73ac98"/><rect x="177.5" y="319.5" width="35.5" height="35.5" fill="#fcc485"/><rect x="213" y="284" width="71" height="71" fill="#abcec2"/><g transform="translate(213,284) scale(3.55) rotate(0)"><path fill-rule="evenodd" clip-rule="evenodd" d="M10 20C15.5228 20 20 15.5228 20 10C20 4.47715 15.5228 0 10 0C4.47715 0 0 4.47715 0 10C0 15.5228 4.47715 20 10 20ZM10 17C13.866 17 17 13.866 17 10C17 6.13401 13.866 3 10 3C6.13401 3 3 6.13401 3 10C3 13.866 6.13401 17 10 17Z" fill="#ebb39d"/></g><rect x="284" y="284" width="71" height="71" fill="#feedd9"/><path d="M 284 284 A 71 71 0 0 1  355 355 L 284 284 A 71 71 0 0 0 355 355" fill="#fdd9b1"/><rect x="355" y="284" width="71" height="71" fill="#a1c8ba"/><rect x="355" y="284" width="71" height="71" fill="#e1ede9"/><rect x="426" y="284" width="71" height="71" fill="#ffffff"/><rect x="426" y="284" width="35.5" height="35.5" fill="#b6d4c9"/><polygon points="426,284 461.5,284 461.5,319.5" fill="#fa9523"/><rect x="461.5" y="284" width="35.5" height="35.5" fill="#d3e5de"/><path d="M 461.5 284 A 35.5 35.5 0 0 1 497 319.5 L 461.5 319.5" fill="#fef0df"/><rect x="426" y="319.5" width="35.5" height="35.5" fill="#fbae57"/><g transform="translate(426,319.5) scale(1.775) rotate(0)"><path fill-rule="evenodd" clip-rule="evenodd" d="M10 20C15.5228 20 20 15.5228 20 10C20 4.47715 15.5228 0 10 0C4.47715 0 0 4.47715 0 10C0 15.5228 4.47715 20 10 20ZM10 17C13.866 17 17 13.866 17 10C17 6.13401 13.866 3 10 3C6.13401 3 3 6.13401 3 10C3 13.866 6.13401 17 10 17Z" fill="#d65f30"/></g><rect x="461.5" y="319.5" width="35.5" height="35.5" fill="#8abaa9"/><path d="M 461.5 355 A 35.5 35.5 0 0 1  497 319.5 L 461.5 355 A 35.5 35.5 0 0 0 497 319.5" fill="#dfece8"/><rect x="497" y="284" width="71" height="71" fill="#fa9625"/><rect x="497" y="284" width="71" height="71" fill="#fdd8ad"/><rect x="568" y="284" width="71" height="71" fill="#f1c8b8"/><g transform="translate(568,284) scale(3.55) rotate(0)"><rect width="20" height="10" fill="#c8ded6"/></g><rect x="639" y="284" width="71" height="71" fill="#fba441"/><g transform="translate(639,284) scale(3.55) rotate(0)"><path fill-rule="evenodd" clip-rule="evenodd" d="M10 20C15.5228 20 20 15.5228 20 10C20 4.47715 15.5228 0 10 0C4.47715 0 0 4.47715 0 10C0 15.5228 4.47715 20 10 20ZM10 17C13.866 17 17 13.866 17 10C17 6.13401 13.866 3 10 3C6.13401 3 3 6.13401 3 10C3 13.866 6.13401 17 10 17Z" fill="#de7f59"/></g><rect x="710" y="284" width="71" height="71" fill="#e69e82"/><g transform="translate(710,284) scale(3.55) rotate(0)"><path fill-rule="evenodd" clip-rule="evenodd" d="M10 20C15.5228 20 20 15.5228 20 10C20 4.47715 15.5228 0 10 0C4.47715 0 0 4.47715 0 10C0 15.5228 4.47715 20 10 20ZM10 17C13.866 17 17 13.866 17 10C17 6.13401 13.866 3 10 3C6.13401 3 3 6.13401 3 10C3 13.866 6.13401 17 10 17Z" fill="#e5f0ec"/></g><rect x="781" y="284" width="71" height="71" fill="#f2cdbf"/><g transform="translate(781,284) scale(3.55) rotate(0)"><rect width="20" height="10" fill="#fa9829"/></g><rect x="852" y="284" width="71" height="71" fill="#ffffff"/><rect x="852" y="284" width="35.5" height="35.5" fill="#70ab96"/><g transform="translate(852,284) scale(1.775) rotate(0)"><rect width="20" height="10" fill="#dfece7"/></g><rect x="887.5" y="284" width="35.5" height="35.5" fill="#f8e4dc"/><rect x="887.5" y="284" width="35.5" height="35.5" fill="#6ea994"/><rect x="852" y="319.5" width="35.5" height="35.5" fill="#f9e9e3"/><rect x="852" y="319.5" width="35.5" height="35.5" fill="#7eb3a0"/><rect x="887.5" y="319.5" width="35.5" height="35.5" fill="#80b4a1"/><polygon points="923,319.5 923,355 887.5,355" fill="#fee9d2"/><rect x="923" y="284" width="71" height="71" fill="#ffffff"/><rect x="923" y="284" width="35.5" height="35.5" fill="#fcbf7b"/><polygon points="923,284 958.5,319.5 923,319.5" fill="#ebb29c"/><rect x="958.5" y="284" width="35.5" height="35.5" fill="#fff8f1"/><rect x="958.5" y="284" width="35.5" height="35.5" fill="#84b7a5"/><rect x="923" y="319.5" width="35.5" height="35.5" fill="#d4e6df"/><g transform="translate(923,319.5) scale(1.775) rotate(0)"><path fill-rule="evenodd" clip-rule="evenodd" d="M10 20C15.5228 20 20 15.5228 20 10C20 4.47715 15.5228 0 10 0C4.47715 0 0 4.47715 0 10C0 15.5228 4.47715 20 10 20ZM10 17C13.866 17 17 13.866 17 10C17 6.13401 13.866 3 10 3C6.13401 3 3 6.13401 3 10C3 13.866 6.13401 17 10 17Z" fill="#ebb39c"/></g><rect x="958.5" y="319.5" width="35.5" height="35.5" fill="#78af9b"/><polygon points="994,319.5 994,355 958.5,355" fill="#90beae"/><rect x="994" y="284" width="71" height="71" fill="#ffffff"/><rect x="994" y="284" width="35.5" height="35.5" fill="#d66032"/><polygon points="994,284 1029.5,284 994,319.5" fill="#fbb15c"/><rect x="1029.5" y="284" width="35.5" height="35.5" fill="#81b5a3"/><polygon points="1029.5,284 1065,319.5 1029.5,319.5" fill="#de805b"/><rect x="994" y="319.5" width="35.5" height="35.5" fill="#da7248"/><g transform="translate(994,319.5) scale(1.775) rotate(0)"><rect width="20" height="10" fill="#98c2b3"/></g><rect x="1029.5" y="319.5" width="35.5" height="35.5" fill="#c9dfd8"/><polygon points="1029.5,319.5 1065,355 1029.5,355" fill="#f3f8f6"/><rect x="1065" y="284" width="71" height="71" fill="#ffffff"/><rect x="1065" y="284" width="35.5" height="35.5" fill="#d8663a"/><rect x="1065" y="284" width="35.5" height="35.5" fill="#fbf1ed"/><rect x="1100.5" y="284" width="35.5" height="35.5" fill="#ecb49f"/><path d="M 1100.5 319.5 A 35.5 35.5 0 0 1  1136 284 L 1136 319.5" fill="#f8e3db"/><rect x="1065" y="319.5" width="35.5" height="35.5" fill="#d96a3f"/><g transform="translate(1065,319.5) scale(1.775) rotate(0)"><path fill-rule="evenodd" clip-rule="evenodd" d="M10 20C15.5228 20 20 15.5228 20 10C20 4.47715 15.5228 0 10 0C4.47715 0 0 4.47715 0 10C0 15.5228 4.47715 20 10 20ZM10 17C13.866 17 17 13.866 17 10C17 6.13401 13.866 3 10 3C6.13401 3 3 6.13401 3 10C3 13.866 6.13401 17 10 17Z" fill="#cbe0d9"/></g><rect x="1100.5" y="319.5" width="35.5" height="35.5" fill="#f1c8b7"/><path d="M 1100.5 319.5 A 35.5 35.5 0 0 0 1136 355 L 1136 319.5" fill="#fbb25f"/><rect x="0" y="355" width="71" height="71" fill="#e1ede9"/><g transform="translate(0,355) scale(3.55) rotate(0)"><path fill-rule="evenodd" clip-rule="evenodd" d="M10 20C15.5228 20 20 15.5228 20 10C20 4.47715 15.5228 0 10 0C4.47715 0 0 4.47715 0 10C0 15.5228 4.47715 20 10 20ZM10 17C13.866 17 17 13.866 17 10C17 6.13401 13.866 3 10 3C6.13401 3 3 6.13401 3 10C3 13.866 6.13401 17 10 17Z" fill="#f5f9f8"/></g><rect x="71" y="355" width="71" height="71" fill="#faa13b"/><g transform="translate(71,355) scale(3.55) rotate(0)"><rect width="20" height="10" fill="#f98a0b"/></g><rect x="142" y="355" width="71" height="71" fill="#fddbb3"/><g transform="translate(142,355) scale(3.55) rotate(0)"><rect width="20" height="10" fill="#fee2c3"/></g><rect x="213" y="355" width="71" height="71" fill="#dc7851"/><polygon points="213,355 284,426 213,426" fill="#fbae56"/><rect x="284" y="355" width="71" height="71" fill="#ffffff"/><rect x="284" y="355" width="35.5" height="35.5" fill="#98c2b4"/><path d="M 284 355 A 35.5 35.5 0 0 0 319.5 390.5 L 319.5 355" fill="#b7d5ca"/><rect x="319.5" y="355" width="35.5" height="35.5" fill="#f1cbbb"/><g transform="translate(319.5,355) scale(1.775) rotate(0)"><rect width="20" height="10" fill="#fbb260"/></g><rect x="284" y="390.5" width="35.5" height="35.5" fill="#f4d5c9"/><path d="M 284 390.5 A 35.5 35.5 0 0 1  319.5 426 L 284 390.5 A 35.5 35.5 0 0 0 319.5 426" fill="#c1dad1"/><rect x="319.5" y="390.5" width="35.5" height="35.5" fill="#c6ded5"/><g transform="translate(319.5,390.5) scale(1.775) rotate(0)"><path fill-rule="evenodd" clip-rule="evenodd" d="M10 20C15.5228 20 20 15.5228 20 10C20 4.47715 15.5228 0 10 0C4.47715 0 0 4.47715 0 10C0 15.5228 4.47715 20 10 20ZM10 17C13.866 17 17 13.866 17 10C17 6.13401 13.866 3 10 3C6.13401 3 3 6.13401 3 10C3 13.866 6.13401 17 10 17Z" fill="#f4d6ca"/></g><rect x="355" y="355" width="71" height="71" fill="#ffffff"/><rect x="355" y="355" width="35.5" height="35.5" fill="#eaaf97"/><g transform="translate(355,355) scale(1.775) rotate(0)"><rect width="20" height="10" fill="#fba646"/></g><rect x="390.5" y="355" width="35.5" height="35.5" fill="#fcc17f"/><g transform="translate(390.5,355) scale(1.775) rotate(0)"><path fill-rule="evenodd" clip-rule="evenodd" d="M10 20C15.5228 20 20 15.5228 20 10C20 4.47715 15.5228 0 10 0C4.47715 0 0 4.47715 0 10C0 15.5228 4.47715 20 10 20ZM10 17C13.866 17 17 13.866 17 10C17 6.13401 13.866 3 10 3C6.13401 3 3 6.13401 3 10C3 13.866 6.13401 17 10 17Z" fill="#d9e8e3"/></g><rect x="355" y="390.5" width="35.5" height="35.5" fill="#dbeae5"/><polygon points="355,390.5 390.5,426 355,426" fill="#a7cbbe"/><rect x="390.5" y="390.5" width="35.5" height="35.5" fill="#df8561"/><path d="M 390.5 426 A 35.5 35.5 0 0 0 426 390.5 L 390.5 390.5" fill="#fa9726"/><rect x="426" y="355" width="71" height="71" fill="#ffffff"/><rect x="426" y="355" width="35.5" height="35.5" fill="#fcbc73"/><path d="M 426 390.5 A 35.5 35.5 0 0 0 461.5 355 L 426 355" fill="#eaae96"/><rect x="461.5" y="355" width="35.5" height="35.5" fill="#fffefe"/><g transform="translate(461.5,355) scale(1.775) rotate(0)"><rect width="20" height="10" fill="#e7a489"/></g><rect x="426" y="390.5" width="35.5" height="35.5" fill="#fcc382"/><polygon points="426,390.5 461.5,390.5 461.5,426" fill="#b4d3c8"/><rect x="461.5" y="390.5" width="35.5" height="35.5" fill="#fbac53"/><g transform="translate(461.5,390.5) scale(1.775) rotate(0)"><rect width="20" height="10" fill="#fdd3a3"/></g><rect x="497" y="355" width="71" height="71" fill="#ffffff"/><rect x="497" y="355" width="35.5" height="35.5" fill="#e59b7d"/><polygon points="497,355 532.5,355 532.5,390.5" fill="#fde0be"/><rect x="532.5" y="355" width="35.5" height="35.5" fill="#ecb7a2"/><g transform="translate(532.5,355) scale(1.775) rotate(0)"><path fill-rule="evenodd" clip-rule="evenodd" d="M10 20C15.5228 20 20 15.5228 20 10C20 4.47715 15.5228 0 10 0C4.47715 0 0 4.47715 0 10C0 15.5228 4.47715 20 10 20ZM10 17C13.866 17 17 13.866 17 10C17 6.13401 13.866 3 10 3C6.13401 3 3 6.13401 3 10C3 13.866 6.13401 17 10 17Z" fill="#8bbbaa"/></g><rect x="497" y="390.5" width="35.5" height="35.5" fill="#fefdfc"/><polygon points="532.5,390.5 532.5,426 497,426" fill="#fbb260"/><rect x="532.5" y="390.5" width="35.5" height="35.5" fill="#fee9d1"/><rect x="532.5" y="390.5" width="35.5" height="35.5" fill="#82b5a3"/><rect x="568" y="355" width="71" height="71" fill="#fbac51"/><path d="M 568 426 A 71 71 0 0 1  639 355 L 639 426" fill="#f3f8f6"/><rect x="639" y="355" width="71" height="71" fill="#f0c6b6"/><path d="M 639 355 A 71 71 0 0 0 710 426 L 710 355" fill="#e39373"/><rect x="710" y="355" width="71" height="71" fill="#ffffff"/><rect x="710" y="355" width="35.5" height="35.5" fill="#7bb19e"/><g transform="translate(710,355) scale(1.775) rotate(0)"><path fill-rule="evenodd" clip-rule="evenodd" d="M10 20C15.5228 20 20 15.5228 20 10C20 4.47715 15.5228 0 10 0C4.47715 0 0 4.47715 0 10C0 15.5228 4.47715 20 10 20ZM10 17C13.866 17 17 13.866 17 10C17 6.13401 13.866 3 10 3C6.13401 3 3 6.13401 3 10C3 13.866 6.13401 17 10 17Z" fill="#d76436"/></g><rect x="745.5" y="355" width="35.5" height="35.5" fill="#f2ccbe"/><polygon points="745.5,355 781,390.5 745.5,390.5" fill="#d2511e"/><rect x="710" y="390.5" width="35.5" height="35.5" fill="#b8d5cb"/><path d="M 710 426 A 35.5 35.5 0 0 1  745.5 390.5 L 710 426 A 35.5 35.5 0 0 0 745.5 390.5" fill="#d6e7e1"/><rect x="745.5" y="390.5" width="35.5" height="35.5" fill="#fee4c6"/><path d="M 745.5 390.5 A 35.5 35.5 0 0 0 781 426 L 781 390.5" fill="#fccb93"/><rect x="781" y="355" width="71" height="71" fill="#ffffff"/><rect x="781" y="355" width="35.5" height="35.5" fill="#de7f5a"/><polygon points="781,355 816.5,355 781,390.5" fill="#fef0e0"/><rect x="816.5" y="355" width="35.5" height="35.5" fill="#abcec1"/><g transform="translate(816.5,355) scale(1.775) rotate(0)"><rect width="20" height="10" fill="#7cb29f"/></g><rect x="781" y="390.5" width="35.5" height="35.5" fill="#de7e59"/><path d="M 781 390.5 A 35.5 35.5 0 0 0 816.5 426 L 816.5 390.5" fill="#fba646"/><rect x="816.5" y="390.5" width="35.5" height="35.5" fill="#fef3e7"/><polygon points="816.5,390.5 852,390.5 816.5,426" fill="#f9e8e1"/><rect x="852" y="355" width="71" height="71" fill="#ffffff"/><rect x="852" y="355" width="35.5" height="35.5" fill="#e59b7d"/><g transform="translate(852,355) scale(1.775) rotate(0)"><path fill-rule="evenodd" clip-rule="evenodd" d="M10 20C15.5228 20 20 15.5228 20 10C20 4.47715 15.5228 0 10 0C4.47715 0 0 4.47715 0 10C0 15.5228 4.47715 20 10 20ZM10 17C13.866 17 17 13.866 17 10C17 6.13401 13.866 3 10 3C6.13401 3 3 6.13401 3 10C3 13.866 6.13401 17 10 17Z" fill="#f98909"/></g><rect x="887.5" y="355" width="35.5" height="35.5" fill="#d8683c"/><path d="M 887.5 390.5 A 35.5 35.5 0 0 1  923 355 L 923 390.5" fill="#e59c7f"/><rect x="852" y="390.5" width="35.5" height="35.5" fill="#f2cdbe"/><g transform="translate(852,390.5) scale(1.775) rotate(0)"><rect width="20" height="10" fill="#e2eee9"/></g><rect x="887.5" y="390.5" width="35.5" height="35.5" fill="#fdddb7"/><rect x="887.5" y="390.5" width="35.5" height="35.5" fill="#fcf4f1"/><rect x="923" y="355" width="71" height="71" fill="#fcc381"/><g transform="translate(923,355) scale(3.55) rotate(0)"><path fill-rule="evenodd" clip-rule="evenodd" d="M10 20C15.5228 20 20 15.5228 20 10C20 4.47715 15.5228 0 10 0C4.47715 0 0 4.47715 0 10C0 15.5228 4.47715 20 10 20ZM10 17C13.866 17 17 13.866 17 10C17 6.13401 13.866 3 10 3C6.13401 3 3 6.13401 3 10C3 13.866 6.13401 17 10 17Z" fill="#6da994"/></g><rect x="994" y="355" width="71" height="71" fill="#ffffff"/><rect x="994" y="355" width="35.5" height="35.5" fill="#d35321"/><rect x="994" y="355" width="35.5" height="35.5" fill="#6ca993"/><rect x="1029.5" y="355" width="35.5" height="35.5" fill="#b7d4ca"/><rect x="1029.5" y="355" width="35.5" height="35.5" fill="#ebb19a"/><rect x="994" y="390.5" width="35.5" height="35.5" fill="#b2d2c7"/><polygon points="994,390.5 1029.5,390.5 1029.5,426" fill="#fff5ea"/><rect x="1029.5" y="390.5" width="35.5" height="35.5" fill="#fff8f0"/><g transform="translate(1029.5,390.5) scale(1.775) rotate(0)"><rect width="20" height="10" fill="#f2cebf"/></g><rect x="1065" y="355" width="71" height="71" fill="#adcfc3"/><rect x="1065" y="355" width="71" height="71" fill="#d5e6e0"/><rect x="0" y="426" width="71" height="71" fill="#dfece7"/><rect x="0" y="426" width="71" height="71" fill="#fbb464"/><rect x="71" y="426" width="71" height="71" fill="#ffffff"/><rect x="71" y="426" width="35.5" height="35.5" fill="#fa911b"/><g transform="translate(71,426) scale(1.775) rotate(0)"><rect width="20" height="10" fill="#a4c9bc"/></g><rect x="106.5" y="426" width="35.5" height="35.5" fill="#d2e4de"/><rect x="106.5" y="426" width="35.5" height="35.5" fill="#e7a388"/><rect x="71" y="461.5" width="35.5" height="35.5" fill="#fef2e4"/><g transform="translate(71,461.5) scale(1.775) rotate(0)"><path fill-rule="evenodd" clip-rule="evenodd" d="M10 20C15.5228 20 20 15.5228 20 10C20 4.47715 15.5228 0 10 0C4.47715 0 0 4.47715 0 10C0 15.5228 4.47715 20 10 20ZM10 17C13.866 17 17 13.866 17 10C17 6.13401 13.866 3 10 3C6.13401 3 3 6.13401 3 10C3 13.866 6.13401 17 10 17Z" fill="#b5d3c9"/></g><rect x="106.5" y="461.5" width="35.5" height="35.5" fill="#cee2db"/><rect x="106.5" y="461.5" width="35.5" height="35.5" fill="#f98807"/><rect x="142" y="426" width="71" height="71" fill="#fff7ee"/><polygon points="213,426 213,497 142,497" fill="#f98808"/><rect x="213" y="426" width="71" height="71" fill="#ffffff"/><rect x="213" y="426" width="35.5" height="35.5" fill="#fdf6f4"/><g transform="translate(213,426) scale(1.775) rotate(0)"><path fill-rule="evenodd" clip-rule="evenodd" d="M10 20C15.5228 20 20 15.5228 20 10C20 4.47715 15.5228 0 10 0C4.47715 0 0 4.47715 0 10C0 15.5228 4.47715 20 10 20ZM10 17C13.866 17 17 13.866 17 10C17 6.13401 13.866 3 10 3C6.13401 3 3 6.13401 3 10C3 13.866 6.13401 17 10 17Z" fill="#f98c0f"/></g><rect x="248.5" y="426" width="35.5" height="35.5" fill="#fbb05c"/><g transform="translate(248.5,426) scale(1.775) rotate(0)"><path fill-rule="evenodd" clip-rule="evenodd" d="M10 20C15.5228 20 20 15.5228 20 10C20 4.47715 15.5228 0 10 0C4.47715 0 0 4.47715 0 10C0 15.5228 4.47715 20 10 20ZM10 17C13.866 17 17 13.866 17 10C17 6.13401 13.866 3 10 3C6.13401 3 3 6.13401 3 10C3 13.866 6.13401 17 10 17Z" fill="#6ba892"/></g><rect x="213" y="461.5" width="35.5" height="35.5" fill="#fdd5a8"/><rect x="213" y="461.5" width="35.5" height="35.5" fill="#86b8a6"/><rect x="248.5" y="461.5" width="35.5" height="35.5" fill="#f6faf9"/><g transform="translate(248.5,461.5) scale(1.775) rotate(0)"><path fill-rule="evenodd" clip-rule="evenodd" d="M10 20C15.5228 20 20 15.5228 20 10C20 4.47715 15.5228 0 10 0C4.47715 0 0 4.47715 0 10C0 15.5228 4.47715 20 10 20ZM10 17C13.866 17 17 13.866 17 10C17 6.13401 13.866 3 10 3C6.13401 3 3 6.13401 3 10C3 13.866 6.13401 17 10 17Z" fill="#fcf3f0"/></g><rect x="284" y="426" width="71" height="71" fill="#fef0df"/><g transform="translate(284,426) scale(3.55) rotate(0)"><rect width="20" height="10" fill="#a6cabe"/></g><rect x="355" y="426" width="71" height="71" fill="#f3cfc1"/><path d="M 355 497 A 71 71 0 0 1  426 426 L 355 497 A 71 71 0 0 0 426 426" fill="#97c2b3"/><rect x="426" y="426" width="71" height="71" fill="#6aa791"/><g transform="translate(426,426) scale(3.55) rotate(0)"><path fill-rule="evenodd" clip-rule="evenodd" d="M10 20C15.5228 20 20 15.5228 20 10C20 4.47715 15.5228 0 10 0C4.47715 0 0 4.47715 0 10C0 15.5228 4.47715 20 10 20ZM10 17C13.866 17 17 13.866 17 10C17 6.13401 13.866 3 10 3C6.13401 3 3 6.13401 3 10C3 13.866 6.13401 17 10 17Z" fill="#fba747"/></g><rect x="497" y="426" width="71" height="71" fill="#ffffff"/><rect x="497" y="426" width="35.5" height="35.5" fill="#d55e2f"/><path d="M 497 461.5 A 35.5 35.5 0 0 1  532.5 426 L 497 461.5 A 35.5 35.5 0 0 0 532.5 426" fill="#e9a88f"/><rect x="532.5" y="426" width="35.5" height="35.5" fill="#bcd8ce"/><path d="M 532.5 461.5 A 35.5 35.5 0 0 0 568 426 L 532.5 426" fill="#6faa95"/><rect x="497" y="461.5" width="35.5" height="35.5" fill="#fefbfa"/><g transform="translate(497,461.5) scale(1.775) rotate(0)"><path fill-rule="evenodd" clip-rule="evenodd" d="M10 20C15.5228 20 20 15.5228 20 10C20 4.47715 15.5228 0 10 0C4.47715 0 0 4.47715 0 10C0 15.5228 4.47715 20 10 20ZM10 17C13.866 17 17 13.866 17 10C17 6.13401 13.866 3 10 3C6.13401 3 3 6.13401 3 10C3 13.866 6.13401 17 10 17Z" fill="#c7ded6"/></g><rect x="532.5" y="461.5" width="35.5" height="35.5" fill="#fa9e35"/><path d="M 532.5 461.5 A 35.5 35.5 0 0 1  568 497 L 532.5 461.5 A 35.5 35.5 0 0 0 568 497" fill="#faa13c"/><rect x="568" y="426" width="71" height="71" fill="#f8e4dc"/><polygon points="568,426 639,497 568,497" fill="#d45827"/><rect x="639" y="426" width="71" height="71" fill="#fcc78a"/><g transform="translate(639,426) scale(3.55) rotate(0)"><path fill-rule="evenodd" clip-rule="evenodd" d="M10 20C15.5228 20 20 15.5228 20 10C20 4.47715 15.5228 0 10 0C4.47715 0 0 4.47715 0 10C0 15.5228 4.47715 20 10 20ZM10 17C13.866 17 17 13.866 17 10C17 6.13401 13.866 3 10 3C6.13401 3 3 6.13401 3 10C3 13.866 6.13401 17 10 17Z" fill="#88b9a8"/></g><rect x="710" y="426" width="71" height="71" fill="#e4987a"/><g transform="translate(710,426) scale(3.55) rotate(0)"><path fill-rule="evenodd" clip-rule="evenodd" d="M10 20C15.5228 20 20 15.5228 20 10C20 4.47715 15.5228 0 10 0C4.47715 0 0 4.47715 0 10C0 15.5228 4.47715 20 10 20ZM10 17C13.866 17 17 13.866 17 10C17 6.13401 13.866 3 10 3C6.13401 3 3 6.13401 3 10C3 13.866 6.13401 17 10 17Z" fill="#fcf5f2"/></g><rect x="781" y="426" width="71" height="71" fill="#e28f6e"/><path d="M 781 497 A 71 71 0 0 1  852 426 L 781 497 A 71 71 0 0 0 852 426" fill="#fdf9f7"/><rect x="852" y="426" width="71" height="71" fill="#ffffff"/><rect x="852" y="426" width="35.5" height="35.5" fill="#faece7"/><polygon points="852,426 887.5,461.5 852,461.5" fill="#f2ccbe"/><rect x="887.5" y="426" width="35.5" height="35.5" fill="#fcb96d"/><g transform="translate(887.5,426) scale(1.775) rotate(0)"><rect width="20" height="10" fill="#e8a88e"/></g><rect x="852" y="461.5" width="35.5" height="35.5" fill="#fbeee9"/><polygon points="887.5,461.5 887.5,497 852,497" fill="#83b6a4"/><rect x="887.5" y="461.5" width="35.5" height="35.5" fill="#81b5a2"/><rect x="887.5" y="461.5" width="35.5" height="35.5" fill="#bed9cf"/><rect x="923" y="426" width="71" height="71" fill="#d1e4de"/><polygon points="923,426 994,497 923,497" fill="#fdcf9b"/><rect x="994" y="426" width="71" height="71" fill="#fba645"/><polygon points="994,426 1065,426 1065,497" fill="#da6e44"/><rect x="1065" y="426" width="71" height="71" fill="#ffffff"/><rect x="1065" y="426" width="35.5" height="35.5" fill="#fbaf57"/><polygon points="1065,426 1100.5,461.5 1065,461.5" fill="#79b09c"/><rect x="1100.5" y="426" width="35.5" height="35.5" fill="#70ab96"/><rect x="1100.5" y="426" width="35.5" height="35.5" fill="#d76336"/><rect x="1065" y="461.5" width="35.5" height="35.5" fill="#fef1e3"/><rect x="1065" y="461.5" width="35.5" height="35.5" fill="#d6e7e1"/><rect x="1100.5" y="461.5" width="35.5" height="35.5" fill="#b4d3c8"/><rect x="1100.5" y="461.5" width="35.5" height="35.5" fill="#70aa96"/><rect x="0" y="497" width="71" height="71" fill="#fffefd"/><path d="M 0 497 A 71 71 0 0 0 71 568 L 71 497" fill="#f6faf9"/><rect x="71" y="497" width="71" height="71" fill="#d8e8e2"/><g transform="translate(71,497) scale(3.55) rotate(0)"><rect width="20" height="10" fill="#fcba6f"/></g><rect x="142" y="497" width="71" height="71" fill="#ffffff"/><rect x="142" y="497" width="35.5" height="35.5" fill="#e49576"/><g transform="translate(142,497) scale(1.775) rotate(0)"><rect width="20" height="10" fill="#fafcfb"/></g><rect x="177.5" y="497" width="35.5" height="35.5" fill="#deebe7"/><path d="M 177.5 532.5 A 35.5 35.5 0 0 1  213 497 L 213 532.5" fill="#f0c5b4"/><rect x="142" y="532.5" width="35.5" height="35.5" fill="#fffcf8"/><path d="M 142 532.5 A 35.5 35.5 0 0 0 177.5 568 L 177.5 532.5" fill="#e6f0ed"/><rect x="177.5" y="532.5" width="35.5" height="35.5" fill="#adcfc3"/><rect x="177.5" y="532.5" width="35.5" height="35.5" fill="#9ac3b4"/><rect x="213" y="497" width="71" height="71" fill="#ffffff"/><rect x="213" y="497" width="35.5" height="35.5" fill="#fdfefd"/><path d="M 213 497 A 35.5 35.5 0 0 1 248.5 532.5 L 213 532.5" fill="#fa9726"/><rect x="248.5" y="497" width="35.5" height="35.5" fill="#fba748"/><polygon points="248.5,497 284,497 248.5,532.5" fill="#eaf3f0"/><rect x="213" y="532.5" width="35.5" height="35.5" fill="#fcf4f0"/><polygon points="213,532.5 248.5,532.5 248.5,568" fill="#99c3b4"/><rect x="248.5" y="532.5" width="35.5" height="35.5" fill="#fee7ce"/><g transform="translate(248.5,532.5) scale(1.775) rotate(0)"><rect width="20" height="10" fill="#77af9b"/></g><rect x="284" y="497" width="71" height="71" fill="#ffffff"/><rect x="284" y="497" width="35.5" height="35.5" fill="#e8f2ee"/><polygon points="284,497 319.5,497 319.5,532.5" fill="#e7a287"/><rect x="319.5" y="497" width="35.5" height="35.5" fill="#9ec6b7"/><rect x="319.5" y="497" width="35.5" height="35.5" fill="#dc774f"/><rect x="284" y="532.5" width="35.5" height="35.5" fill="#fefbfa"/><g transform="translate(284,532.5) scale(1.775) rotate(0)"><path fill-rule="evenodd" clip-rule="evenodd" d="M10 20C15.5228 20 20 15.5228 20 10C20 4.47715 15.5228 0 10 0C4.47715 0 0 4.47715 0 10C0 15.5228 4.47715 20 10 20ZM10 17C13.866 17 17 13.866 17 10C17 6.13401 13.866 3 10 3C6.13401 3 3 6.13401 3 10C3 13.866 6.13401 17 10 17Z" fill="#b0d0c5"/></g><rect x="319.5" y="532.5" width="35.5" height="35.5" fill="#e69d80"/><g transform="translate(319.5,532.5) scale(1.775) rotate(0)"><path fill-rule="evenodd" clip-rule="evenodd" d="M10 20C15.5228 20 20 15.5228 20 10C20 4.47715 15.5228 0 10 0C4.47715 0 0 4.47715 0 10C0 15.5228 4.47715 20 10 20ZM10 17C13.866 17 17 13.866 17 10C17 6.13401 13.866 3 10 3C6.13401 3 3 6.13401 3 10C3 13.866 6.13401 17 10 17Z" fill="#78b09c"/></g><rect x="355" y="497" width="71" height="71" fill="#e59b7d"/><polygon points="355,497 426,497 355,568" fill="#74ad98"/><rect x="426" y="497" width="71" height="71" fill="#ffffff"/><rect x="426" y="497" width="35.5" height="35.5" fill="#fa931f"/><polygon points="426,497 461.5,532.5 426,532.5" fill="#fa992b"/><rect x="461.5" y="497" width="35.5" height="35.5" fill="#f3d1c3"/><g transform="translate(461.5,497) scale(1.775) rotate(0)"><rect width="20" height="10" fill="#e28f6e"/></g><rect x="426" y="532.5" width="35.5" height="35.5" fill="#c3dcd3"/><rect x="426" y="532.5" width="35.5" height="35.5" fill="#fef4e7"/><rect x="461.5" y="532.5" width="35.5" height="35.5" fill="#f9e8e1"/><g transform="translate(461.5,532.5) scale(1.775) rotate(0)"><path fill-rule="evenodd" clip-rule="evenodd" d="M10 20C15.5228 20 20 15.5228 20 10C20 4.47715 15.5228 0 10 0C4.47715 0 0 4.47715 0 10C0 15.5228 4.47715 20 10 20ZM10 17C13.866 17 17 13.866 17 10C17 6.13401 13.866 3 10 3C6.13401 3 3 6.13401 3 10C3 13.866 6.13401 17 10 17Z" fill="#f98909"/></g><rect x="497" y="497" width="71" height="71" fill="#fff5ea"/><polygon points="568,497 568,568 497,568" fill="#fdddb9"/><rect x="568" y="497" width="71" height="71" fill="#fbb05b"/><polygon points="568,497 639,568 568,568" fill="#f7e1d9"/><rect x="639" y="497" width="71" height="71" fill="#ffffff"/><rect x="639" y="497" width="35.5" height="35.5" fill="#fcf2ef"/><g transform="translate(639,497) scale(1.775) rotate(0)"><path fill-rule="evenodd" clip-rule="evenodd" d="M10 20C15.5228 20 20 15.5228 20 10C20 4.47715 15.5228 0 10 0C4.47715 0 0 4.47715 0 10C0 15.5228 4.47715 20 10 20ZM10 17C13.866 17 17 13.866 17 10C17 6.13401 13.866 3 10 3C6.13401 3 3 6.13401 3 10C3 13.866 6.13401 17 10 17Z" fill="#e4987a"/></g><rect x="674.5" y="497" width="35.5" height="35.5" fill="#e69e82"/><rect x="674.5" y="497" width="35.5" height="35.5" fill="#fee6cc"/><rect x="639" y="532.5" width="35.5" height="35.5" fill="#faede8"/><rect x="639" y="532.5" width="35.5" height="35.5" fill="#fbb15c"/><rect x="674.5" y="532.5" width="35.5" height="35.5" fill="#fdcf9c"/><rect x="674.5" y="532.5" width="35.5" height="35.5" fill="#fcc98e"/><rect x="710" y="497" width="71" height="71" fill="#eab098"/><polygon points="781,497 781,568 710,568" fill="#d0e3dc"/><rect x="781" y="497" width="71" height="71" fill="#fff9f3"/><path d="M 781 497 A 71 71 0 0 1  852 568 L 781 497 A 71 71 0 0 0 852 568" fill="#e5f0ec"/><rect x="852" y="497" width="71" height="71" fill="#ffffff"/><rect x="852" y="497" width="35.5" height="35.5" fill="#df825d"/><g transform="translate(852,497) scale(1.775) rotate(0)"><path fill-rule="evenodd" clip-rule="evenodd" d="M10 20C15.5228 20 20 15.5228 20 10C20 4.47715 15.5228 0 10 0C4.47715 0 0 4.47715 0 10C0 15.5228 4.47715 20 10 20ZM10 17C13.866 17 17 13.866 17 10C17 6.13401 13.866 3 10 3C6.13401 3 3 6.13401 3 10C3 13.866 6.13401 17 10 17Z" fill="#fdd9af"/></g><rect x="887.5" y="497" width="35.5" height="35.5" fill="#f6dad0"/><polygon points="887.5,497 923,497 923,532.5" fill="#f6f9f8"/><rect x="852" y="532.5" width="35.5" height="35.5" fill="#fa9b2f"/><g transform="translate(852,532.5) scale(1.775) rotate(0)"><rect width="20" height="10" fill="#df825e"/></g><rect x="887.5" y="532.5" width="35.5" height="35.5" fill="#f98604"/><rect x="887.5" y="532.5" width="35.5" height="35.5" fill="#d6e7e1"/><rect x="923" y="497" width="71" height="71" fill="#fdd9b0"/><path d="M 923 568 A 71 71 0 0 1  994 497 L 994 568" fill="#fbb361"/><rect x="994" y="497" width="71" height="71" fill="#ffffff"/><rect x="994" y="497" width="35.5" height="35.5" fill="#f8e3db"/><g transform="translate(994,497) scale(1.775) rotate(0)"><rect width="20" height="10" fill="#fdf6f3"/></g><rect x="1029.5" y="497" width="35.5" height="35.5" fill="#f3d0c2"/><g transform="translate(1029.5,497) scale(1.775) rotate(0)"><rect width="20" height="10" fill="#92bfaf"/></g><rect x="994" y="532.5" width="35.5" height="35.5" fill="#df8561"/><rect x="994" y="532.5" width="35.5" height="35.5" fill="#f4d3c6"/><rect x="1029.5" y="532.5" width="35.5" height="35.5" fill="#f6ddd3"/><polygon points="1029.5,532.5 1065,532.5 1029.5,568" fill="#fbb666"/><rect x="1065" y="497" width="71" height="71" fill="#78b09c"/><polygon points="1065,497 1136,497 1136,568" fill="#aecfc3"/><rect x="0" y="568" width="71" height="71" fill="#f9e6df"/><g transform="translate(0,568) scale(3.55) rotate(0)"><path fill-rule="evenodd" clip-rule="evenodd" d="M10 20C15.5228 20 20 15.5228 20 10C20 4.47715 15.5228 0 10 0C4.47715 0 0 4.47715 0 10C0 15.5228 4.47715 20 10 20ZM10 17C13.866 17 17 13.866 17 10C17 6.13401 13.866 3 10 3C6.13401 3 3 6.13401 3 10C3 13.866 6.13401 17 10 17Z" fill="#94c0b0"/></g><rect x="71" y="568" width="71" height="71" fill="#fddfbb"/><g transform="translate(71,568) scale(3.55) rotate(0)"><rect width="20" height="10" fill="#d35523"/></g><rect x="142" y="568" width="71" height="71" fill="#ffffff"/><rect x="142" y="568" width="35.5" height="35.5" fill="#ecb49e"/><rect x="142" y="568" width="35.5" height="35.5" fill="#de815c"/><rect x="177.5" y="568" width="35.5" height="35.5" fill="#b3d2c7"/><polygon points="177.5,568 213,603.5 177.5,603.5" fill="#d8693d"/><rect x="142" y="603.5" width="35.5" height="35.5" fill="#fbf1ed"/><g transform="translate(142,603.5) scale(1.775) rotate(0)"><path fill-rule="evenodd" clip-rule="evenodd" d="M10 20C15.5228 20 20 15.5228 20 10C20 4.47715 15.5228 0 10 0C4.47715 0 0 4.47715 0 10C0 15.5228 4.47715 20 10 20ZM10 17C13.866 17 17 13.866 17 10C17 6.13401 13.866 3 10 3C6.13401 3 3 6.13401 3 10C3 13.866 6.13401 17 10 17Z" fill="#da7148"/></g><rect x="177.5" y="603.5" width="35.5" height="35.5" fill="#ebf3f0"/><g transform="translate(177.5,603.5) scale(1.775) rotate(0)"><path fill-rule="evenodd" clip-rule="evenodd" d="M10 20C15.5228 20 20 15.5228 20 10C20 4.47715 15.5228 0 10 0C4.47715 0 0 4.47715 0 10C0 15.5228 4.47715 20 10 20ZM10 17C13.866 17 17 13.866 17 10C17 6.13401 13.866 3 10 3C6.13401 3 3 6.13401 3 10C3 13.866 6.13401 17 10 17Z" fill="#f1c8b8"/></g><rect x="213" y="568" width="71" height="71" fill="#fef1e2"/><g transform="translate(213,568) scale(3.55) rotate(0)"><path fill-rule="evenodd" clip-rule="evenodd" d="M10 20C15.5228 20 20 15.5228 20 10C20 4.47715 15.5228 0 10 0C4.47715 0 0 4.47715 0 10C0 15.5228 4.47715 20 10 20ZM10 17C13.866 17 17 13.866 17 10C17 6.13401 13.866 3 10 3C6.13401 3 3 6.13401 3 10C3 13.866 6.13401 17 10 17Z" fill="#c5ddd5"/></g><rect x="284" y="568" width="71" height="71" fill="#fafcfb"/><rect x="284" y="568" width="71" height="71" fill="#73ac98"/><rect x="355" y="568" width="71" height="71" fill="#ffffff"/><rect x="355" y="568" width="35.5" height="35.5" fill="#eaad94"/><polygon points="355,568 390.5,568 355,603.5" fill="#fffaf4"/><rect x="390.5" y="568" width="35.5" height="35.5" fill="#fffcf9"/><g transform="translate(390.5,568) scale(1.775) rotate(0)"><rect width="20" height="10" fill="#e59c7e"/></g><rect x="355" y="603.5" width="35.5" height="35.5" fill="#96c1b2"/><rect x="355" y="603.5" width="35.5" height="35.5" fill="#faa13a"/><rect x="390.5" y="603.5" width="35.5" height="35.5" fill="#74ad99"/><g transform="translate(390.5,603.5) scale(1.775) rotate(0)"><path fill-rule="evenodd" clip-rule="evenodd" d="M10 20C15.5228 20 20 15.5228 20 10C20 4.47715 15.5228 0 10 0C4.47715 0 0 4.47715 0 10C0 15.5228 4.47715 20 10 20ZM10 17C13.866 17 17 13.866 17 10C17 6.13401 13.866 3 10 3C6.13401 3 3 6.13401 3 10C3 13.866 6.13401 17 10 17Z" fill="#fee2c3"/></g><rect x="426" y="568" width="71" height="71" fill="#83b6a4"/><path d="M 426 568 A 71 71 0 0 1  497 639 L 426 568 A 71 71 0 0 0 497 639" fill="#90bdad"/><rect x="497" y="568" width="71" height="71" fill="#ffffff"/><rect x="497" y="568" width="35.5" height="35.5" fill="#fcc17d"/><rect x="497" y="568" width="35.5" height="35.5" fill="#fa9a2d"/><rect x="532.5" y="568" width="35.5" height="35.5" fill="#fcbd77"/><polygon points="532.5,568 568,568 568,603.5" fill="#97c2b3"/><rect x="497" y="603.5" width="35.5" height="35.5" fill="#e8f1ee"/><path d="M 497 639 A 35.5 35.5 0 0 1  532.5 603.5 L 532.5 639" fill="#e5efec"/><rect x="532.5" y="603.5" width="35.5" height="35.5" fill="#e6a084"/><path d="M 532.5 603.5 A 35.5 35.5 0 0 1  568 639 L 532.5 603.5 A 35.5 35.5 0 0 0 568 639" fill="#e4987a"/><rect x="568" y="568" width="71" height="71" fill="#fee6cc"/><path d="M 568 568 A 71 71 0 0 0 639 639 L 639 568" fill="#e7a387"/><rect x="639" y="568" width="71" height="71" fill="#dae9e4"/><rect x="639" y="568" width="71" height="71" fill="#df835f"/><rect x="710" y="568" width="71" height="71" fill="#ffffff"/><rect x="710" y="568" width="35.5" height="35.5" fill="#da6f45"/><g transform="translate(710,568) scale(1.775) rotate(0)"><rect width="20" height="10" fill="#fa992b"/></g><rect x="745.5" y="568" width="35.5" height="35.5" fill="#e1ede9"/><polygon points="781,568 781,603.5 745.5,603.5" fill="#eaae96"/><rect x="710" y="603.5" width="35.5" height="35.5" fill="#bcd8ce"/><path d="M 710 639 A 35.5 35.5 0 0 1  745.5 603.5 L 710 639 A 35.5 35.5 0 0 0 745.5 603.5" fill="#d45929"/><rect x="745.5" y="603.5" width="35.5" height="35.5" fill="#edb9a5"/><path d="M 745.5 603.5 A 35.5 35.5 0 0 1 781 639 L 745.5 639" fill="#fcca91"/><rect x="781" y="568" width="71" height="71" fill="#ffffff"/><rect x="781" y="568" width="35.5" height="35.5" fill="#f4d6ca"/><rect x="781" y="568" width="35.5" height="35.5" fill="#b5d3c8"/><rect x="816.5" y="568" width="35.5" height="35.5" fill="#d55b2b"/><rect x="816.5" y="568" width="35.5" height="35.5" fill="#a2c8bb"/><rect x="781" y="603.5" width="35.5" height="35.5" fill="#fbb462"/><g transform="translate(781,603.5) scale(1.775) rotate(0)"><path fill-rule="evenodd" clip-rule="evenodd" d="M10 20C15.5228 20 20 15.5228 20 10C20 4.47715 15.5228 0 10 0C4.47715 0 0 4.47715 0 10C0 15.5228 4.47715 20 10 20ZM10 17C13.866 17 17 13.866 17 10C17 6.13401 13.866 3 10 3C6.13401 3 3 6.13401 3 10C3 13.866 6.13401 17 10 17Z" fill="#d5e6e0"/></g><rect x="816.5" y="603.5" width="35.5" height="35.5" fill="#feefdd"/><path d="M 816.5 639 A 35.5 35.5 0 0 1  852 603.5 L 816.5 639 A 35.5 35.5 0 0 0 852 603.5" fill="#eff6f3"/><rect x="852" y="568" width="71" height="71" fill="#ffffff"/><rect x="852" y="568" width="35.5" height="35.5" fill="#d35422"/><g transform="translate(852,568) scale(1.775) rotate(0)"><rect width="20" height="10" fill="#e9a990"/></g><rect x="887.5" y="568" width="35.5" height="35.5" fill="#fa9727"/><g transform="translate(887.5,568) scale(1.775) rotate(0)"><rect width="20" height="10" fill="#a7cbbf"/></g><rect x="852" y="603.5" width="35.5" height="35.5" fill="#edf4f2"/><path d="M 852 603.5 A 35.5 35.5 0 0 0 887.5 639 L 887.5 603.5" fill="#fa9119"/><rect x="887.5" y="603.5" width="35.5" height="35.5" fill="#fdcd97"/><g transform="translate(887.5,603.5) scale(1.775) rotate(0)"><rect width="20" height="10" fill="#b3d2c7"/></g><rect x="923" y="568" width="71" height="71" fill="#e08764"/><rect x="923" y="568" width="71" height="71" fill="#bfd9d0"/><rect x="994" y="568" width="71" height="71" fill="#ffffff"/><rect x="994" y="568" width="35.5" height="35.5" fill="#adcfc3"/><g transform="translate(994,568) scale(1.775) rotate(0)"><rect width="20" height="10" fill="#d8683c"/></g><rect x="1029.5" y="568" width="35.5" height="35.5" fill="#fef0df"/><g transform="translate(1029.5,568) scale(1.775) rotate(0)"><rect width="20" height="10" fill="#fba94b"/></g><rect x="994" y="603.5" width="35.5" height="35.5" fill="#fdce99"/><g transform="translate(994,603.5) scale(1.775) rotate(0)"><path fill-rule="evenodd" clip-rule="evenodd" d="M10 20C15.5228 20 20 15.5228 20 10C20 4.47715 15.5228 0 10 0C4.47715 0 0 4.47715 0 10C0 15.5228 4.47715 20 10 20ZM10 17C13.866 17 17 13.866 17 10C17 6.13401 13.866 3 10 3C6.13401 3 3 6.13401 3 10C3 13.866 6.13401 17 10 17Z" fill="#fcc07c"/></g><rect x="1029.5" y="603.5" width="35.5" height="35.5" fill="#d35624"/><rect x="1029.5" y="603.5" width="35.5" height="35.5" fill="#d45827"/><rect x="1065" y="568" width="71" height="71" fill="#ffffff"/><rect x="1065" y="568" width="35.5" height="35.5" fill="#d86a3e"/><g transform="translate(1065,568) scale(1.775) rotate(0)"><rect width="20" height="10" fill="#faede8"/></g><rect x="1100.5" y="568" width="35.5" height="35.5" fill="#fa9727"/><g transform="translate(1100.5,568) scale(1.775) rotate(0)"><rect width="20" height="10" fill="#6ca893"/></g><rect x="1065" y="603.5" width="35.5" height="35.5" fill="#e39475"/><path d="M 1065 603.5 A 35.5 35.5 0 0 0 1100.5 639 L 1100.5 603.5" fill="#d96b40"/><rect x="1100.5" y="603.5" width="35.5" height="35.5" fill="#fdf6f3"/><g transform="translate(1100.5,603.5) scale(1.775) rotate(0)"><path fill-rule="evenodd" clip-rule="evenodd" d="M10 20C15.5228 20 20 15.5228 20 10C20 4.47715 15.5228 0 10 0C4.47715 0 0 4.47715 0 10C0 15.5228 4.47715 20 10 20ZM10 17C13.866 17 17 13.866 17 10C17 6.13401 13.866 3 10 3C6.13401 3 3 6.13401 3 10C3 13.866 6.13401 17 10 17Z" fill="#6ba892"/></g><rect x="0" y="639" width="71" height="71" fill="#f98f16"/><rect x="0" y="639" width="71" height="71" fill="#e8f2ee"/><rect x="71" y="639" width="71" height="71" fill="#90bdad"/><path d="M 71 639 A 71 71 0 0 0 142 710 L 142 639" fill="#dc7a52"/><rect x="142" y="639" width="71" height="71" fill="#ffffff"/><rect x="142" y="639" width="35.5" height="35.5" fill="#fbb361"/><path d="M 142 674.5 A 35.5 35.5 0 0 0 177.5 639 L 142 639" fill="#faa13c"/><rect x="177.5" y="639" width="35.5" height="35.5" fill="#fee1c1"/><g transform="translate(177.5,639) scale(1.775) rotate(0)"><rect width="20" height="10" fill="#bbd7cd"/></g><rect x="142" y="674.5" width="35.5" height="35.5" fill="#fbab51"/><path d="M 142 674.5 A 35.5 35.5 0 0 1 177.5 710 L 142 710" fill="#f8e4dd"/><rect x="177.5" y="674.5" width="35.5" height="35.5" fill="#fbf0eb"/><rect x="177.5" y="674.5" width="35.5" height="35.5" fill="#d45928"/><rect x="213" y="639" width="71" height="71" fill="#fee7cd"/><polygon points="213,639 284,710 213,710" fill="#99c3b4"/><rect x="284" y="639" width="71" height="71" fill="#ffffff"/><rect x="284" y="639" width="35.5" height="35.5" fill="#fff9f2"/><g transform="translate(284,639) scale(1.775) rotate(0)"><rect width="20" height="10" fill="#f98a0b"/></g><rect x="319.5" y="639" width="35.5" height="35.5" fill="#c7ded6"/><rect x="319.5" y="639" width="35.5" height="35.5" fill="#98c3b4"/><rect x="284" y="674.5" width="35.5" height="35.5" fill="#d76639"/><rect x="284" y="674.5" width="35.5" height="35.5" fill="#bdd8cf"/><rect x="319.5" y="674.5" width="35.5" height="35.5" fill="#f98f15"/><g transform="translate(319.5,674.5) scale(1.775) rotate(0)"><rect width="20" height="10" fill="#fbb768"/></g><rect x="355" y="639" width="71" height="71" fill="#ffffff"/><rect x="355" y="639" width="35.5" height="35.5" fill="#d6e7e1"/><g transform="translate(355,639) scale(1.775) rotate(0)"><path fill-rule="evenodd" clip-rule="evenodd" d="M10 20C15.5228 20 20 15.5228 20 10C20 4.47715 15.5228 0 10 0C4.47715 0 0 4.47715 0 10C0 15.5228 4.47715 20 10 20ZM10 17C13.866 17 17 13.866 17 10C17 6.13401 13.866 3 10 3C6.13401 3 3 6.13401 3 10C3 13.866 6.13401 17 10 17Z" fill="#81b5a2"/></g><rect x="390.5" y="639" width="35.5" height="35.5" fill="#bcd8ce"/><g transform="translate(390.5,639) scale(1.775) rotate(0)"><rect width="20" height="10" fill="#fef9f8"/></g><rect x="355" y="674.5" width="35.5" height="35.5" fill="#b5d4c9"/><polygon points="355,674.5 390.5,674.5 355,710" fill="#bdd8ce"/><rect x="390.5" y="674.5" width="35.5" height="35.5" fill="#d8683b"/><g transform="translate(390.5,674.5) scale(1.775) rotate(0)"><rect width="20" height="10" fill="#f2f7f6"/></g><rect x="426" y="639" width="71" height="71" fill="#ffffff"/><rect x="426" y="639" width="35.5" height="35.5" fill="#fefaf8"/><g transform="translate(426,639) scale(1.775) rotate(0)"><rect width="20" height="10" fill="#80b4a2"/></g><rect x="461.5" y="639" width="35.5" height="35.5" fill="#fefcfb"/><polygon points="461.5,639 497,674.5 461.5,674.5" fill="#b5d3c9"/><rect x="426" y="674.5" width="35.5" height="35.5" fill="#90beae"/><rect x="426" y="674.5" width="35.5" height="35.5" fill="#fffaf4"/><rect x="461.5" y="674.5" width="35.5" height="35.5" fill="#c9dfd7"/><polygon points="461.5,674.5 497,674.5 461.5,710" fill="#dd7c55"/><rect x="497" y="639" width="71" height="71" fill="#93bfb0"/><polygon points="568,639 568,710 497,710" fill="#c7ded6"/><rect x="568" y="639" width="71" height="71" fill="#ffffff"/><rect x="568" y="639" width="35.5" height="35.5" fill="#d5e7e0"/><g transform="translate(568,639) scale(1.775) rotate(0)"><rect width="20" height="10" fill="#f4f9f7"/></g><rect x="603.5" y="639" width="35.5" height="35.5" fill="#fee3c6"/><polygon points="603.5,639 639,639 639,674.5" fill="#fddab3"/><rect x="568" y="674.5" width="35.5" height="35.5" fill="#fcf4f1"/><path d="M 568 674.5 A 35.5 35.5 0 0 1  603.5 710 L 568 674.5 A 35.5 35.5 0 0 0 603.5 710" fill="#d45826"/><rect x="603.5" y="674.5" width="35.5" height="35.5" fill="#e8f1ee"/><rect x="603.5" y="674.5" width="35.5" height="35.5" fill="#e28e6d"/><rect x="639" y="639" width="71" height="71" fill="#ddebe6"/><g transform="translate(639,639) scale(3.55) rotate(0)"><rect width="20" height="10" fill="#fbfdfc"/></g><rect x="710" y="639" width="71" height="71" fill="#fdcd98"/><g transform="translate(710,639) scale(3.55) rotate(0)"><rect width="20" height="10" fill="#94c0b1"/></g><rect x="781" y="639" width="71" height="71" fill="#ffffff"/><rect x="781" y="639" width="35.5" height="35.5" fill="#c9dfd7"/><g transform="translate(781,639) scale(1.775) rotate(0)"><path fill-rule="evenodd" clip-rule="evenodd" d="M10 20C15.5228 20 20 15.5228 20 10C20 4.47715 15.5228 0 10 0C4.47715 0 0 4.47715 0 10C0 15.5228 4.47715 20 10 20ZM10 17C13.866 17 17 13.866 17 10C17 6.13401 13.866 3 10 3C6.13401 3 3 6.13401 3 10C3 13.866 6.13401 17 10 17Z" fill="#8bbaaa"/></g><rect x="816.5" y="639" width="35.5" height="35.5" fill="#fbb15c"/><g transform="translate(816.5,639) scale(1.775) rotate(0)"><path fill-rule="evenodd" clip-rule="evenodd" d="M10 20C15.5228 20 20 15.5228 20 10C20 4.47715 15.5228 0 10 0C4.47715 0 0 4.47715 0 10C0 15.5228 4.47715 20 10 20ZM10 17C13.866 17 17 13.866 17 10C17 6.13401 13.866 3 10 3C6.13401 3 3 6.13401 3 10C3 13.866 6.13401 17 10 17Z" fill="#fffbf7"/></g><rect x="781" y="674.5" width="35.5" height="35.5" fill="#d8663a"/><path d="M 781 674.5 A 35.5 35.5 0 0 1 816.5 710 L 781 710" fill="#73ad98"/><rect x="816.5" y="674.5" width="35.5" height="35.5" fill="#fcc381"/><polygon points="816.5,674.5 852,674.5 852,710" fill="#de7e58"/><rect x="852" y="639" width="71" height="71" fill="#ffffff"/><rect x="852" y="639" width="35.5" height="35.5" fill="#bfd9d0"/><polygon points="852,639 887.5,639 887.5,674.5" fill="#ecb59f"/><rect x="887.5" y="639" width="35.5" height="35.5" fill="#fee7cc"/><g transform="translate(887.5,639) scale(1.775) rotate(0)"><rect width="20" height="10" fill="#e28e6d"/></g><rect x="852" y="674.5" width="35.5" height="35.5" fill="#8fbdad"/><rect x="852" y="674.5" width="35.5" height="35.5" fill="#b5d3c8"/><rect x="887.5" y="674.5" width="35.5" height="35.5" fill="#a5cabc"/><g transform="translate(887.5,674.5) scale(1.775) rotate(0)"><rect width="20" height="10" fill="#75ae9a"/></g><rect x="923" y="639" width="71" height="71" fill="#fdd5a7"/><polygon points="923,639 994,639 994,710" fill="#fdd19f"/><rect x="994" y="639" width="71" height="71" fill="#ffffff"/><rect x="994" y="639" width="35.5" height="35.5" fill="#fcc98f"/><path d="M 994 639 A 35.5 35.5 0 0 1  1029.5 674.5 L 994 639 A 35.5 35.5 0 0 0 1029.5 674.5" fill="#f98705"/><rect x="1029.5" y="639" width="35.5" height="35.5" fill="#f3cfc1"/><polygon points="1065,639 1065,674.5 1029.5,674.5" fill="#ecb7a2"/><rect x="994" y="674.5" width="35.5" height="35.5" fill="#f4d3c7"/><g transform="translate(994,674.5) scale(1.775) rotate(0)"><path fill-rule="evenodd" clip-rule="evenodd" d="M10 20C15.5228 20 20 15.5228 20 10C20 4.47715 15.5228 0 10 0C4.47715 0 0 4.47715 0 10C0 15.5228 4.47715 20 10 20ZM10 17C13.866 17 17 13.866 17 10C17 6.13401 13.866 3 10 3C6.13401 3 3 6.13401 3 10C3 13.866 6.13401 17 10 17Z" fill="#f2ccbd"/></g><rect x="1029.5" y="674.5" width="35.5" height="35.5" fill="#fbb667"/><g transform="translate(1029.5,674.5) scale(1.775) rotate(0)"><rect width="20" height="10" fill="#94c0b1"/></g><rect x="1065" y="639" width="71" height="71" fill="#fee1c1"/><rect x="1065" y="639" width="71" height="71" fill="#f3d2c5"/></g></svg>